G04 #@! TF.FileFunction,Soldermask,Top*
%FSLAX46Y46*%
G04 Gerber Fmt 4.6, Leading zero omitted, Abs format (unit mm)*
G04 Created by KiCad (PCBNEW 4.0.6) date Tue Apr 25 22:47:00 2017*
%MOMM*%
%LPD*%
G01*
G04 APERTURE LIST*
%ADD10C,0.100000*%
%ADD11R,1.650000X1.400000*%
%ADD12R,1.150000X1.200000*%
%ADD13R,1.200000X1.150000*%
%ADD14R,1.750000X0.800000*%
%ADD15O,1.350000X1.650000*%
%ADD16O,1.950000X1.400000*%
%ADD17R,2.127200X2.432000*%
%ADD18O,2.127200X2.432000*%
%ADD19R,2.127200X2.127200*%
%ADD20O,2.127200X2.127200*%
%ADD21R,1.300000X0.900000*%
%ADD22R,2.100000X1.400000*%
%ADD23R,2.432000X4.057600*%
%ADD24R,2.432000X1.416000*%
%ADD25R,1.700000X0.650000*%
%ADD26R,0.650000X1.700000*%
%ADD27C,3.600000*%
G04 APERTURE END LIST*
D10*
D11*
X177165000Y-101330000D03*
X177165000Y-99330000D03*
X177165000Y-94250000D03*
X177165000Y-96250000D03*
D12*
X163195000Y-89650000D03*
X163195000Y-88150000D03*
D13*
X164985000Y-81280000D03*
X166485000Y-81280000D03*
X173724000Y-93980000D03*
X172224000Y-93980000D03*
D12*
X175895000Y-83324000D03*
X175895000Y-84824000D03*
D14*
X180047460Y-88930900D03*
X180047460Y-88280900D03*
X180047460Y-87630900D03*
X180047460Y-86980900D03*
X180047460Y-86330900D03*
D15*
X180047460Y-90130900D03*
X180047460Y-85130900D03*
D16*
X182747460Y-91130900D03*
X182747460Y-84130900D03*
D17*
X168275000Y-73025000D03*
D18*
X170815000Y-73025000D03*
X173355000Y-73025000D03*
X175895000Y-73025000D03*
D19*
X157480000Y-101600000D03*
D20*
X154940000Y-101600000D03*
X157480000Y-99060000D03*
X154940000Y-99060000D03*
X157480000Y-96520000D03*
X154940000Y-96520000D03*
X157480000Y-93980000D03*
X154940000Y-93980000D03*
D19*
X157480000Y-91440000D03*
D20*
X154940000Y-91440000D03*
X157480000Y-88900000D03*
X154940000Y-88900000D03*
X157480000Y-86360000D03*
X154940000Y-86360000D03*
X157480000Y-83820000D03*
X154940000Y-83820000D03*
D19*
X157480000Y-81280000D03*
D20*
X154940000Y-81280000D03*
X157480000Y-78740000D03*
X154940000Y-78740000D03*
X157480000Y-76200000D03*
X154940000Y-76200000D03*
X157480000Y-73660000D03*
X154940000Y-73660000D03*
D21*
X166370000Y-77990000D03*
X166370000Y-79490000D03*
D22*
X175235000Y-80640000D03*
X168935000Y-80640000D03*
X175235000Y-76840000D03*
X168935000Y-76840000D03*
D23*
X167513000Y-99568000D03*
D24*
X174117000Y-99568000D03*
X174117000Y-97282000D03*
X174117000Y-101854000D03*
D25*
X165195000Y-84880000D03*
X165195000Y-85380000D03*
X165195000Y-85880000D03*
X165195000Y-86380000D03*
X165195000Y-86880000D03*
X165195000Y-87380000D03*
X165195000Y-87880000D03*
X165195000Y-88380000D03*
X165195000Y-88880000D03*
X165195000Y-89380000D03*
X165195000Y-89880000D03*
X165195000Y-90380000D03*
D26*
X166795000Y-91980000D03*
X167295000Y-91980000D03*
X167795000Y-91980000D03*
X168295000Y-91980000D03*
X168795000Y-91980000D03*
X169295000Y-91980000D03*
X169795000Y-91980000D03*
X170295000Y-91980000D03*
X170795000Y-91980000D03*
X171295000Y-91980000D03*
X171795000Y-91980000D03*
X172295000Y-91980000D03*
D25*
X173895000Y-90380000D03*
X173895000Y-89880000D03*
X173895000Y-89380000D03*
X173895000Y-88880000D03*
X173895000Y-88380000D03*
X173895000Y-87880000D03*
X173895000Y-87380000D03*
X173895000Y-86880000D03*
X173895000Y-86380000D03*
X173895000Y-85880000D03*
X173895000Y-85380000D03*
X173895000Y-84880000D03*
D26*
X172295000Y-83280000D03*
X171795000Y-83280000D03*
X171295000Y-83280000D03*
X170795000Y-83280000D03*
X170295000Y-83280000D03*
X169795000Y-83280000D03*
X169295000Y-83280000D03*
X168795000Y-83280000D03*
X168295000Y-83280000D03*
X167795000Y-83280000D03*
X167295000Y-83280000D03*
X166795000Y-83280000D03*
D27*
X181610000Y-74930000D03*
X181610000Y-100330000D03*
X162560000Y-100330000D03*
X162560000Y-74930000D03*
M02*
