G04 #@! TF.FileFunction,Copper,L1,Top,Signal*
%FSLAX46Y46*%
G04 Gerber Fmt 4.6, Leading zero omitted, Abs format (unit mm)*
G04 Created by KiCad (PCBNEW 4.0.6) date Tue Apr 25 22:47:00 2017*
%MOMM*%
%LPD*%
G01*
G04 APERTURE LIST*
%ADD10C,0.100000*%
%ADD11R,1.250000X1.000000*%
%ADD12R,0.750000X0.800000*%
%ADD13R,0.800000X0.750000*%
%ADD14R,1.350000X0.400000*%
%ADD15O,0.950000X1.250000*%
%ADD16O,1.550000X1.000000*%
%ADD17R,1.727200X2.032000*%
%ADD18O,1.727200X2.032000*%
%ADD19R,1.727200X1.727200*%
%ADD20O,1.727200X1.727200*%
%ADD21R,0.900000X0.500000*%
%ADD22R,1.700000X1.000000*%
%ADD23R,2.032000X3.657600*%
%ADD24R,2.032000X1.016000*%
%ADD25R,1.300000X0.250000*%
%ADD26R,0.250000X1.300000*%
%ADD27C,0.600000*%
%ADD28C,0.500000*%
%ADD29C,0.250000*%
G04 APERTURE END LIST*
D10*
D11*
X177165000Y-101330000D03*
X177165000Y-99330000D03*
X177165000Y-94250000D03*
X177165000Y-96250000D03*
D12*
X163195000Y-89650000D03*
X163195000Y-88150000D03*
D13*
X164985000Y-81280000D03*
X166485000Y-81280000D03*
X173724000Y-93980000D03*
X172224000Y-93980000D03*
D12*
X175895000Y-83324000D03*
X175895000Y-84824000D03*
D14*
X180047460Y-88930900D03*
X180047460Y-88280900D03*
X180047460Y-87630900D03*
X180047460Y-86980900D03*
X180047460Y-86330900D03*
D15*
X180047460Y-90130900D03*
X180047460Y-85130900D03*
D16*
X182747460Y-91130900D03*
X182747460Y-84130900D03*
D17*
X168275000Y-73025000D03*
D18*
X170815000Y-73025000D03*
X173355000Y-73025000D03*
X175895000Y-73025000D03*
D19*
X157480000Y-101600000D03*
D20*
X154940000Y-101600000D03*
X157480000Y-99060000D03*
X154940000Y-99060000D03*
X157480000Y-96520000D03*
X154940000Y-96520000D03*
X157480000Y-93980000D03*
X154940000Y-93980000D03*
D19*
X157480000Y-91440000D03*
D20*
X154940000Y-91440000D03*
X157480000Y-88900000D03*
X154940000Y-88900000D03*
X157480000Y-86360000D03*
X154940000Y-86360000D03*
X157480000Y-83820000D03*
X154940000Y-83820000D03*
D19*
X157480000Y-81280000D03*
D20*
X154940000Y-81280000D03*
X157480000Y-78740000D03*
X154940000Y-78740000D03*
X157480000Y-76200000D03*
X154940000Y-76200000D03*
X157480000Y-73660000D03*
X154940000Y-73660000D03*
D21*
X166370000Y-77990000D03*
X166370000Y-79490000D03*
D22*
X175235000Y-80640000D03*
X168935000Y-80640000D03*
X175235000Y-76840000D03*
X168935000Y-76840000D03*
D23*
X167513000Y-99568000D03*
D24*
X174117000Y-99568000D03*
X174117000Y-97282000D03*
X174117000Y-101854000D03*
D25*
X165195000Y-84880000D03*
X165195000Y-85380000D03*
X165195000Y-85880000D03*
X165195000Y-86380000D03*
X165195000Y-86880000D03*
X165195000Y-87380000D03*
X165195000Y-87880000D03*
X165195000Y-88380000D03*
X165195000Y-88880000D03*
X165195000Y-89380000D03*
X165195000Y-89880000D03*
X165195000Y-90380000D03*
D26*
X166795000Y-91980000D03*
X167295000Y-91980000D03*
X167795000Y-91980000D03*
X168295000Y-91980000D03*
X168795000Y-91980000D03*
X169295000Y-91980000D03*
X169795000Y-91980000D03*
X170295000Y-91980000D03*
X170795000Y-91980000D03*
X171295000Y-91980000D03*
X171795000Y-91980000D03*
X172295000Y-91980000D03*
D25*
X173895000Y-90380000D03*
X173895000Y-89880000D03*
X173895000Y-89380000D03*
X173895000Y-88880000D03*
X173895000Y-88380000D03*
X173895000Y-87880000D03*
X173895000Y-87380000D03*
X173895000Y-86880000D03*
X173895000Y-86380000D03*
X173895000Y-85880000D03*
X173895000Y-85380000D03*
X173895000Y-84880000D03*
D26*
X172295000Y-83280000D03*
X171795000Y-83280000D03*
X171295000Y-83280000D03*
X170795000Y-83280000D03*
X170295000Y-83280000D03*
X169795000Y-83280000D03*
X169295000Y-83280000D03*
X168795000Y-83280000D03*
X168295000Y-83280000D03*
X167795000Y-83280000D03*
X167295000Y-83280000D03*
X166795000Y-83280000D03*
D27*
X177165000Y-91694000D03*
X163703000Y-80899000D03*
X163195000Y-86995000D03*
X166497000Y-80264000D03*
X178435000Y-86360000D03*
X172466000Y-85344000D03*
X177165000Y-97790000D03*
X172212000Y-94996000D03*
X173101000Y-75311000D03*
X177165000Y-92964000D03*
X176022000Y-91567000D03*
X164973000Y-83439000D03*
X173895000Y-84074000D03*
X162814000Y-94996000D03*
X160909000Y-95631000D03*
X159385000Y-96266000D03*
X165481000Y-91440000D03*
X170434000Y-90551000D03*
X172212000Y-90551000D03*
X163195000Y-90678000D03*
X169926000Y-89662000D03*
X171958000Y-89662000D03*
X161798000Y-88773000D03*
X169545000Y-88773000D03*
X172085000Y-88773000D03*
X161925000Y-87757000D03*
X168910000Y-88138000D03*
X172720000Y-88138000D03*
D28*
X157480000Y-76200000D02*
X157480000Y-73660000D01*
X157480000Y-76200000D02*
X161798000Y-80518000D01*
X163322000Y-80518000D02*
X161798000Y-80518000D01*
X163703000Y-80899000D02*
X163322000Y-80518000D01*
X174117000Y-101854000D02*
X175387000Y-101854000D01*
X175911000Y-101330000D02*
X177165000Y-101330000D01*
X175387000Y-101854000D02*
X175911000Y-101330000D01*
X179354900Y-88930900D02*
X178531100Y-88930900D01*
X172593000Y-101854000D02*
X174117000Y-101854000D01*
X172085000Y-101346000D02*
X172593000Y-101854000D01*
X172085000Y-96520000D02*
X172085000Y-101346000D01*
X172593000Y-96012000D02*
X172085000Y-96520000D01*
X173609000Y-96012000D02*
X172593000Y-96012000D01*
X175006000Y-94615000D02*
X173609000Y-96012000D01*
X175006000Y-93853000D02*
X175006000Y-94615000D01*
X178181000Y-90678000D02*
X177165000Y-91694000D01*
X177165000Y-91694000D02*
X175006000Y-93853000D01*
X178181000Y-89281000D02*
X178181000Y-90678000D01*
X178531100Y-88930900D02*
X178181000Y-89281000D01*
D29*
X180047460Y-88930900D02*
X179354900Y-88930900D01*
X179354900Y-88930900D02*
X179324000Y-88900000D01*
X163195000Y-88150000D02*
X163195000Y-86995000D01*
X166497000Y-81268000D02*
X166497000Y-80264000D01*
X166370000Y-80137000D02*
X166497000Y-80264000D01*
X166370000Y-80137000D02*
X166370000Y-79490000D01*
X166497000Y-81268000D02*
X166485000Y-81280000D01*
D28*
X179353100Y-86330900D02*
X178464100Y-86330900D01*
D29*
X180047460Y-86330900D02*
X179353100Y-86330900D01*
D28*
X178464100Y-86330900D02*
X178435000Y-86360000D01*
D29*
X173895000Y-85380000D02*
X172502000Y-85380000D01*
X172502000Y-85380000D02*
X172466000Y-85344000D01*
D28*
X177165000Y-96250000D02*
X177165000Y-97790000D01*
X177165000Y-97790000D02*
X177165000Y-99330000D01*
X174117000Y-99568000D02*
X175641000Y-99568000D01*
X175879000Y-99330000D02*
X177165000Y-99330000D01*
X175641000Y-99568000D02*
X175879000Y-99330000D01*
D29*
X172224000Y-93980000D02*
X172224000Y-94984000D01*
X172224000Y-94984000D02*
X172212000Y-94996000D01*
X171795000Y-91980000D02*
X171795000Y-93551000D01*
X171795000Y-93551000D02*
X172224000Y-93980000D01*
X173895000Y-85380000D02*
X174843000Y-85380000D01*
X175399000Y-84824000D02*
X175895000Y-84824000D01*
X174843000Y-85380000D02*
X175399000Y-84824000D01*
X165195000Y-88380000D02*
X164199000Y-88380000D01*
X163969000Y-88150000D02*
X163195000Y-88150000D01*
X164199000Y-88380000D02*
X163969000Y-88150000D01*
X167295000Y-83280000D02*
X167295000Y-82205000D01*
X166485000Y-81903000D02*
X166485000Y-81280000D01*
X166624000Y-82042000D02*
X166485000Y-81903000D01*
X167132000Y-82042000D02*
X166624000Y-82042000D01*
X167295000Y-82205000D02*
X167132000Y-82042000D01*
X173863000Y-77851000D02*
X173101000Y-77089000D01*
X173101000Y-77089000D02*
X173101000Y-75311000D01*
X165195000Y-88880000D02*
X166136000Y-88880000D01*
X166795000Y-88221000D02*
X166795000Y-83280000D01*
X166136000Y-88880000D02*
X166795000Y-88221000D01*
X165608000Y-82804000D02*
X164973000Y-83439000D01*
X173895000Y-83693000D02*
X173355000Y-83153000D01*
X173355000Y-78359000D02*
X173863000Y-77851000D01*
X173863000Y-77851000D02*
X174874000Y-76840000D01*
X173355000Y-83153000D02*
X173355000Y-78359000D01*
X174874000Y-76840000D02*
X175235000Y-76840000D01*
D28*
X177165000Y-92964000D02*
X177165000Y-94250000D01*
D29*
X172295000Y-91980000D02*
X175609000Y-91980000D01*
X175609000Y-91980000D02*
X176022000Y-91567000D01*
D28*
X157480000Y-78740000D02*
X157480000Y-81280000D01*
X164973000Y-83439000D02*
X162814000Y-81280000D01*
X162814000Y-81280000D02*
X157480000Y-81280000D01*
D29*
X172295000Y-91980000D02*
X172295000Y-92920000D01*
X172962000Y-93218000D02*
X173724000Y-93980000D01*
X172593000Y-93218000D02*
X172962000Y-93218000D01*
X172295000Y-92920000D02*
X172593000Y-93218000D01*
X172295000Y-91980000D02*
X172295000Y-92551000D01*
D28*
X174117000Y-97282000D02*
X174498000Y-97282000D01*
X174498000Y-97282000D02*
X175706002Y-96073998D01*
X176133000Y-94250000D02*
X177165000Y-94250000D01*
X175706002Y-94676998D02*
X176133000Y-94250000D01*
X175706002Y-96073998D02*
X175706002Y-94676998D01*
D29*
X173895000Y-84880000D02*
X173895000Y-84074000D01*
X173895000Y-84074000D02*
X173895000Y-83693000D01*
X173895000Y-83693000D02*
X173895000Y-83661000D01*
X173895000Y-83661000D02*
X174232000Y-83324000D01*
X174232000Y-83324000D02*
X175895000Y-83324000D01*
X163195000Y-89650000D02*
X163969000Y-89650000D01*
X164231000Y-88880000D02*
X165195000Y-88880000D01*
X164084000Y-89027000D02*
X164231000Y-88880000D01*
X164084000Y-89535000D02*
X164084000Y-89027000D01*
X163969000Y-89650000D02*
X164084000Y-89535000D01*
X166795000Y-83280000D02*
X166084000Y-83280000D01*
X166084000Y-83280000D02*
X165608000Y-82804000D01*
X164985000Y-82181000D02*
X164985000Y-81280000D01*
X165608000Y-82804000D02*
X164985000Y-82181000D01*
X173895000Y-86880000D02*
X176542000Y-86880000D01*
X177942900Y-88280900D02*
X180047460Y-88280900D01*
X176542000Y-86880000D02*
X177942900Y-88280900D01*
X173895000Y-86380000D02*
X176804000Y-86380000D01*
X178054900Y-87630900D02*
X180047460Y-87630900D01*
X176804000Y-86380000D02*
X178054900Y-87630900D01*
X172295000Y-83280000D02*
X172295000Y-76664000D01*
X170815000Y-75184000D02*
X170815000Y-73025000D01*
X172295000Y-76664000D02*
X170815000Y-75184000D01*
X173895000Y-85880000D02*
X176502000Y-85880000D01*
X175895000Y-75184000D02*
X175895000Y-73025000D01*
X177038000Y-76327000D02*
X175895000Y-75184000D01*
X177038000Y-85344000D02*
X177038000Y-76327000D01*
X176502000Y-85880000D02*
X177038000Y-85344000D01*
X168295000Y-83280000D02*
X168295000Y-87737000D01*
X169295000Y-89412000D02*
X169295000Y-91980000D01*
X168148000Y-88265000D02*
X169295000Y-89412000D01*
X168148000Y-87884000D02*
X168148000Y-88265000D01*
X168295000Y-87737000D02*
X168148000Y-87884000D01*
X169295000Y-93595000D02*
X167894000Y-94996000D01*
X167894000Y-94996000D02*
X162814000Y-94996000D01*
X169295000Y-91980000D02*
X169295000Y-93595000D01*
X160909000Y-95631000D02*
X168021000Y-95631000D01*
X169795000Y-93857000D02*
X169795000Y-91980000D01*
X168021000Y-95631000D02*
X169795000Y-93857000D01*
X170434000Y-93472000D02*
X170434000Y-94107000D01*
X159385000Y-96266000D02*
X168275000Y-96266000D01*
X168275000Y-96266000D02*
X170295000Y-94246000D01*
X170434000Y-94107000D02*
X170295000Y-94246000D01*
X170795000Y-91980000D02*
X170795000Y-93111000D01*
X170295000Y-93333000D02*
X170434000Y-93472000D01*
X170295000Y-93333000D02*
X170295000Y-91980000D01*
X170795000Y-93111000D02*
X170434000Y-93472000D01*
X171295000Y-91980000D02*
X171295000Y-83280000D01*
X171295000Y-91980000D02*
X171295000Y-94008000D01*
X158750000Y-95250000D02*
X158750000Y-96774000D01*
X158750000Y-96774000D02*
X158877000Y-96901000D01*
X158877000Y-96901000D02*
X168402000Y-96901000D01*
X168402000Y-96901000D02*
X170307000Y-94996000D01*
X158750000Y-95250000D02*
X157480000Y-93980000D01*
X171295000Y-94008000D02*
X170307000Y-94996000D01*
X165481000Y-91440000D02*
X157480000Y-91440000D01*
X172212000Y-90551000D02*
X172383000Y-90380000D01*
X173895000Y-90380000D02*
X172383000Y-90380000D01*
X170795000Y-90190000D02*
X170795000Y-90150000D01*
X170434000Y-90551000D02*
X170795000Y-90190000D01*
X170795000Y-83514000D02*
X170795000Y-90170000D01*
X159258000Y-90678000D02*
X157480000Y-88900000D01*
X163195000Y-90678000D02*
X159258000Y-90678000D01*
X170295000Y-83280000D02*
X170295000Y-89293000D01*
X170295000Y-89293000D02*
X169926000Y-89662000D01*
X172176000Y-89880000D02*
X171958000Y-89662000D01*
X172176000Y-89880000D02*
X173895000Y-89880000D01*
X159893000Y-88773000D02*
X157480000Y-86360000D01*
X161798000Y-88773000D02*
X159893000Y-88773000D01*
X169795000Y-88523000D02*
X169545000Y-88773000D01*
X169795000Y-83280000D02*
X169795000Y-88523000D01*
X172692000Y-89380000D02*
X172085000Y-88773000D01*
X172692000Y-89380000D02*
X173895000Y-89380000D01*
X161417000Y-87757000D02*
X157480000Y-83820000D01*
X161925000Y-87757000D02*
X161417000Y-87757000D01*
X169295000Y-87753000D02*
X168910000Y-88138000D01*
X169295000Y-83280000D02*
X169295000Y-87753000D01*
X172954000Y-88880000D02*
X172720000Y-88646000D01*
X172720000Y-88646000D02*
X172720000Y-88138000D01*
X172954000Y-88880000D02*
X173895000Y-88880000D01*
X166370000Y-77990000D02*
X167525000Y-77990000D01*
X168935000Y-79400000D02*
X168935000Y-80640000D01*
X167525000Y-77990000D02*
X168935000Y-79400000D01*
X168795000Y-83280000D02*
X168795000Y-80780000D01*
X168795000Y-80780000D02*
X168935000Y-80640000D01*
M02*
