M48
;DRILL file {KiCad 4.0.6} date Tue Apr 25 22:47:02 2017
;FORMAT={-:-/ absolute / inch / decimal}
FMAT,2
INCH,TZ
T1C0.016
T2C0.020
T3C0.022
T4C0.040
%
G90
G05
M72
T1
X6.275Y-3.79
X6.335Y-3.765
X6.37Y-3.495
X6.375Y-3.455
X6.41Y-3.74
X6.425Y-3.425
X6.425Y-3.57
X6.445Y-3.185
X6.495Y-3.285
X6.515Y-3.6
X6.555Y-3.16
X6.65Y-3.47
X6.675Y-3.495
X6.69Y-3.53
X6.71Y-3.565
X6.77Y-3.53
X6.775Y-3.495
X6.78Y-3.565
X6.78Y-3.74
X6.79Y-3.36
X6.8Y-3.47
X6.815Y-2.965
X6.8463Y-3.31
X6.93Y-3.605
X6.975Y-3.61
X6.975Y-3.66
X6.975Y-3.85
X7.025Y-3.4
T4
X6.1Y-2.9
X6.1Y-3.
X6.1Y-3.1
X6.1Y-3.2
X6.1Y-3.3
X6.1Y-3.4
X6.1Y-3.5
X6.1Y-3.6
X6.1Y-3.7
X6.1Y-3.8
X6.1Y-3.9
X6.1Y-4.
X6.2Y-2.9
X6.2Y-3.
X6.2Y-3.1
X6.2Y-3.2
X6.2Y-3.3
X6.2Y-3.4
X6.2Y-3.5
X6.2Y-3.6
X6.2Y-3.7
X6.2Y-3.8
X6.2Y-3.9
X6.2Y-4.
X6.625Y-2.875
X6.725Y-2.875
X6.825Y-2.875
X6.925Y-2.875
T2
X7.2076Y-3.3122G85X7.182Y-3.3122
G05
X7.2076Y-3.5878G85X7.182Y-3.5878
G05
T3
X7.0885Y-3.3575G85X7.0885Y-3.3457
G05
X7.0885Y-3.5544G85X7.0885Y-3.5426
G05
T0
M30
