G04 #@! TF.FileFunction,Copper,L2,Bot,Signal*
%FSLAX46Y46*%
G04 Gerber Fmt 4.6, Leading zero omitted, Abs format (unit mm)*
G04 Created by KiCad (PCBNEW 4.0.6) date Tue Apr 25 22:47:00 2017*
%MOMM*%
%LPD*%
G01*
G04 APERTURE LIST*
%ADD10C,0.100000*%
%ADD11O,0.950000X1.250000*%
%ADD12O,1.550000X1.000000*%
%ADD13R,1.727200X2.032000*%
%ADD14O,1.727200X2.032000*%
%ADD15R,1.727200X1.727200*%
%ADD16O,1.727200X1.727200*%
%ADD17C,0.600000*%
%ADD18C,0.500000*%
%ADD19C,0.250000*%
%ADD20C,0.203000*%
G04 APERTURE END LIST*
D10*
D11*
X180047460Y-90130900D03*
X180047460Y-85130900D03*
D12*
X182747460Y-91130900D03*
X182747460Y-84130900D03*
D13*
X168275000Y-73025000D03*
D14*
X170815000Y-73025000D03*
X173355000Y-73025000D03*
X175895000Y-73025000D03*
D15*
X157480000Y-101600000D03*
D16*
X154940000Y-101600000D03*
X157480000Y-99060000D03*
X154940000Y-99060000D03*
X157480000Y-96520000D03*
X154940000Y-96520000D03*
X157480000Y-93980000D03*
X154940000Y-93980000D03*
D15*
X157480000Y-91440000D03*
D16*
X154940000Y-91440000D03*
X157480000Y-88900000D03*
X154940000Y-88900000D03*
X157480000Y-86360000D03*
X154940000Y-86360000D03*
X157480000Y-83820000D03*
X154940000Y-83820000D03*
D15*
X157480000Y-81280000D03*
D16*
X154940000Y-81280000D03*
X157480000Y-78740000D03*
X154940000Y-78740000D03*
X157480000Y-76200000D03*
X154940000Y-76200000D03*
X157480000Y-73660000D03*
X154940000Y-73660000D03*
D17*
X177165000Y-91694000D03*
X163703000Y-80899000D03*
X163195000Y-86995000D03*
X166497000Y-80264000D03*
X178435000Y-86360000D03*
X172466000Y-85344000D03*
X177165000Y-97790000D03*
X172212000Y-94996000D03*
X173101000Y-75311000D03*
X177165000Y-92964000D03*
X176022000Y-91567000D03*
X164973000Y-83439000D03*
X173895000Y-84074000D03*
X162814000Y-94996000D03*
X160909000Y-95631000D03*
X159385000Y-96266000D03*
X165481000Y-91440000D03*
X170434000Y-90551000D03*
X172212000Y-90551000D03*
X163195000Y-90678000D03*
X169926000Y-89662000D03*
X171958000Y-89662000D03*
X161798000Y-88773000D03*
X169545000Y-88773000D03*
X172085000Y-88773000D03*
X161925000Y-87757000D03*
X168910000Y-88138000D03*
X172720000Y-88138000D03*
D18*
X165989000Y-83185000D02*
X163703000Y-80899000D01*
X174625000Y-83185000D02*
X165989000Y-83185000D01*
X177165000Y-85725000D02*
X174625000Y-83185000D01*
X177165000Y-85725000D02*
X177165000Y-91694000D01*
D19*
X168275000Y-74549000D02*
X168275000Y-73025000D01*
X169037000Y-75311000D02*
X168275000Y-74549000D01*
X173101000Y-75311000D02*
X169037000Y-75311000D01*
D18*
X176022000Y-91567000D02*
X176022000Y-91821000D01*
X176276000Y-92075000D02*
X177165000Y-92964000D01*
X176022000Y-91821000D02*
X176276000Y-92075000D01*
X176022000Y-86201000D02*
X173895000Y-84074000D01*
X176022000Y-91567000D02*
X176022000Y-86201000D01*
X173895000Y-84074000D02*
X165608000Y-84074000D01*
X165608000Y-84074000D02*
X164973000Y-83439000D01*
D19*
X173863000Y-84106000D02*
X173895000Y-84074000D01*
X159639000Y-98171000D02*
X159004000Y-98806000D01*
X162814000Y-94996000D02*
X159639000Y-98171000D01*
X159004000Y-100076000D02*
X157480000Y-101600000D01*
X159004000Y-98806000D02*
X159004000Y-100076000D01*
X157480000Y-99060000D02*
X159004000Y-97536000D01*
X159004000Y-97536000D02*
X160909000Y-95631000D01*
X159131000Y-96520000D02*
X159385000Y-96266000D01*
X159131000Y-96520000D02*
X157480000Y-96520000D01*
X170434000Y-90551000D02*
X166370000Y-90551000D01*
X166370000Y-90551000D02*
X165481000Y-91440000D01*
X170434000Y-90551000D02*
X172212000Y-90551000D01*
X169926000Y-89662000D02*
X164211000Y-89662000D01*
X164211000Y-89662000D02*
X163195000Y-90678000D01*
X169926000Y-89662000D02*
X170561000Y-89662000D01*
X170561000Y-89662000D02*
X171958000Y-89662000D01*
X169545000Y-88773000D02*
X161798000Y-88773000D01*
X169545000Y-88773000D02*
X172085000Y-88773000D01*
X168910000Y-88138000D02*
X162306000Y-88138000D01*
X162306000Y-88138000D02*
X161925000Y-87757000D01*
X168910000Y-88138000D02*
X172720000Y-88138000D01*
D20*
G36*
X167260760Y-71622882D02*
X167122407Y-71711910D01*
X167029591Y-71847751D01*
X166996937Y-72009000D01*
X166996937Y-74041000D01*
X167025282Y-74191640D01*
X167114310Y-74329993D01*
X167250151Y-74422809D01*
X167411400Y-74455463D01*
X167743500Y-74455463D01*
X167743500Y-74549000D01*
X167783958Y-74752396D01*
X167899173Y-74924827D01*
X168661173Y-75686827D01*
X168833604Y-75802042D01*
X169037000Y-75842500D01*
X172633302Y-75842500D01*
X172700277Y-75909592D01*
X172959852Y-76017377D01*
X173240915Y-76017622D01*
X173500677Y-75910291D01*
X173699592Y-75711723D01*
X173807377Y-75452148D01*
X173807485Y-75327367D01*
X179603152Y-75327367D01*
X179907980Y-76065106D01*
X180471925Y-76630036D01*
X181209131Y-76936151D01*
X182007367Y-76936848D01*
X182745106Y-76632020D01*
X183310036Y-76068075D01*
X183616151Y-75330869D01*
X183616848Y-74532633D01*
X183312020Y-73794894D01*
X182748075Y-73229964D01*
X182010869Y-72923849D01*
X181212633Y-72923152D01*
X180474894Y-73227980D01*
X179909964Y-73791925D01*
X179603849Y-74529131D01*
X179603152Y-75327367D01*
X173807485Y-75327367D01*
X173807622Y-75171085D01*
X173700291Y-74911323D01*
X173501723Y-74712408D01*
X173242148Y-74604623D01*
X172961085Y-74604378D01*
X172701323Y-74711709D01*
X172633414Y-74779500D01*
X169257154Y-74779500D01*
X168933117Y-74455463D01*
X169138600Y-74455463D01*
X169289240Y-74427118D01*
X169427593Y-74338090D01*
X169520409Y-74202249D01*
X169553063Y-74041000D01*
X169553063Y-73246306D01*
X169641581Y-73691314D01*
X169916904Y-74103364D01*
X170328954Y-74378687D01*
X170815000Y-74475368D01*
X171301046Y-74378687D01*
X171713096Y-74103364D01*
X171988419Y-73691314D01*
X172085100Y-73205268D01*
X172085100Y-73178903D01*
X172181772Y-73663908D01*
X172457257Y-74075850D01*
X172869416Y-74351011D01*
X173155819Y-74431785D01*
X173354500Y-74345875D01*
X173354500Y-73025500D01*
X173334500Y-73025500D01*
X173334500Y-73024500D01*
X173354500Y-73024500D01*
X173354500Y-71704125D01*
X173155819Y-71618215D01*
X172869416Y-71698989D01*
X172457257Y-71974150D01*
X172181772Y-72386092D01*
X172085100Y-72871097D01*
X172085100Y-72844732D01*
X171988419Y-72358686D01*
X171713096Y-71946636D01*
X171301046Y-71671313D01*
X170950074Y-71601500D01*
X175759926Y-71601500D01*
X175408954Y-71671313D01*
X174996904Y-71946636D01*
X174721581Y-72358686D01*
X174624900Y-72844732D01*
X174624900Y-72871097D01*
X174528228Y-72386092D01*
X174252743Y-71974150D01*
X173840584Y-71698989D01*
X173554181Y-71618215D01*
X173355500Y-71704125D01*
X173355500Y-73024500D01*
X173375500Y-73024500D01*
X173375500Y-73025500D01*
X173355500Y-73025500D01*
X173355500Y-74345875D01*
X173554181Y-74431785D01*
X173840584Y-74351011D01*
X174252743Y-74075850D01*
X174528228Y-73663908D01*
X174624900Y-73178903D01*
X174624900Y-73205268D01*
X174721581Y-73691314D01*
X174996904Y-74103364D01*
X175408954Y-74378687D01*
X175895000Y-74475368D01*
X176381046Y-74378687D01*
X176793096Y-74103364D01*
X177068419Y-73691314D01*
X177165100Y-73205268D01*
X177165100Y-72844732D01*
X177068419Y-72358686D01*
X176793096Y-71946636D01*
X176381046Y-71671313D01*
X176030074Y-71601500D01*
X181562577Y-71601500D01*
X182880151Y-71863582D01*
X183956935Y-72583065D01*
X184676418Y-73659849D01*
X184938500Y-74977423D01*
X184938500Y-100282577D01*
X184676418Y-101600151D01*
X183956935Y-102676935D01*
X182880151Y-103396418D01*
X181562577Y-103658500D01*
X154987423Y-103658500D01*
X154155855Y-103493091D01*
X153491091Y-103048909D01*
X153046909Y-102384143D01*
X152930553Y-101799181D01*
X153685615Y-101799181D01*
X153704876Y-101896012D01*
X153912173Y-102346141D01*
X154275948Y-102682677D01*
X154740819Y-102854385D01*
X154939500Y-102768475D01*
X154939500Y-101600500D01*
X153771525Y-101600500D01*
X153685615Y-101799181D01*
X152930553Y-101799181D01*
X152881500Y-101552577D01*
X152881500Y-101400819D01*
X153685615Y-101400819D01*
X153771525Y-101599500D01*
X154939500Y-101599500D01*
X154939500Y-100431525D01*
X154740819Y-100345615D01*
X154275948Y-100517323D01*
X153912173Y-100853859D01*
X153704876Y-101303988D01*
X153685615Y-101400819D01*
X152881500Y-101400819D01*
X152881500Y-99259181D01*
X153685615Y-99259181D01*
X153704876Y-99356012D01*
X153912173Y-99806141D01*
X154275948Y-100142677D01*
X154740819Y-100314385D01*
X154939500Y-100228475D01*
X154939500Y-99060500D01*
X153771525Y-99060500D01*
X153685615Y-99259181D01*
X152881500Y-99259181D01*
X152881500Y-98860819D01*
X153685615Y-98860819D01*
X153771525Y-99059500D01*
X154939500Y-99059500D01*
X154939500Y-97891525D01*
X154740819Y-97805615D01*
X154275948Y-97977323D01*
X153912173Y-98313859D01*
X153704876Y-98763988D01*
X153685615Y-98860819D01*
X152881500Y-98860819D01*
X152881500Y-96719181D01*
X153685615Y-96719181D01*
X153704876Y-96816012D01*
X153912173Y-97266141D01*
X154275948Y-97602677D01*
X154740819Y-97774385D01*
X154939500Y-97688475D01*
X154939500Y-96520500D01*
X153771525Y-96520500D01*
X153685615Y-96719181D01*
X152881500Y-96719181D01*
X152881500Y-96320819D01*
X153685615Y-96320819D01*
X153771525Y-96519500D01*
X154939500Y-96519500D01*
X154939500Y-95351525D01*
X154740819Y-95265615D01*
X154275948Y-95437323D01*
X153912173Y-95773859D01*
X153704876Y-96223988D01*
X153685615Y-96320819D01*
X152881500Y-96320819D01*
X152881500Y-94179181D01*
X153685615Y-94179181D01*
X153704876Y-94276012D01*
X153912173Y-94726141D01*
X154275948Y-95062677D01*
X154740819Y-95234385D01*
X154939500Y-95148475D01*
X154939500Y-93980500D01*
X153771525Y-93980500D01*
X153685615Y-94179181D01*
X152881500Y-94179181D01*
X152881500Y-93780819D01*
X153685615Y-93780819D01*
X153771525Y-93979500D01*
X154939500Y-93979500D01*
X154939500Y-92811525D01*
X154740819Y-92725615D01*
X154275948Y-92897323D01*
X153912173Y-93233859D01*
X153704876Y-93683988D01*
X153685615Y-93780819D01*
X152881500Y-93780819D01*
X152881500Y-91639181D01*
X153685615Y-91639181D01*
X153704876Y-91736012D01*
X153912173Y-92186141D01*
X154275948Y-92522677D01*
X154740819Y-92694385D01*
X154939500Y-92608475D01*
X154939500Y-91440500D01*
X153771525Y-91440500D01*
X153685615Y-91639181D01*
X152881500Y-91639181D01*
X152881500Y-91240819D01*
X153685615Y-91240819D01*
X153771525Y-91439500D01*
X154939500Y-91439500D01*
X154939500Y-90271525D01*
X154740819Y-90185615D01*
X154275948Y-90357323D01*
X153912173Y-90693859D01*
X153704876Y-91143988D01*
X153685615Y-91240819D01*
X152881500Y-91240819D01*
X152881500Y-89099181D01*
X153685615Y-89099181D01*
X153704876Y-89196012D01*
X153912173Y-89646141D01*
X154275948Y-89982677D01*
X154740819Y-90154385D01*
X154939500Y-90068475D01*
X154939500Y-88900500D01*
X153771525Y-88900500D01*
X153685615Y-89099181D01*
X152881500Y-89099181D01*
X152881500Y-88700819D01*
X153685615Y-88700819D01*
X153771525Y-88899500D01*
X154939500Y-88899500D01*
X154939500Y-87731525D01*
X154740819Y-87645615D01*
X154275948Y-87817323D01*
X153912173Y-88153859D01*
X153704876Y-88603988D01*
X153685615Y-88700819D01*
X152881500Y-88700819D01*
X152881500Y-86559181D01*
X153685615Y-86559181D01*
X153704876Y-86656012D01*
X153912173Y-87106141D01*
X154275948Y-87442677D01*
X154740819Y-87614385D01*
X154939500Y-87528475D01*
X154939500Y-86360500D01*
X153771525Y-86360500D01*
X153685615Y-86559181D01*
X152881500Y-86559181D01*
X152881500Y-86160819D01*
X153685615Y-86160819D01*
X153771525Y-86359500D01*
X154939500Y-86359500D01*
X154939500Y-85191525D01*
X154740819Y-85105615D01*
X154275948Y-85277323D01*
X153912173Y-85613859D01*
X153704876Y-86063988D01*
X153685615Y-86160819D01*
X152881500Y-86160819D01*
X152881500Y-84019181D01*
X153685615Y-84019181D01*
X153704876Y-84116012D01*
X153912173Y-84566141D01*
X154275948Y-84902677D01*
X154740819Y-85074385D01*
X154939500Y-84988475D01*
X154939500Y-83820500D01*
X153771525Y-83820500D01*
X153685615Y-84019181D01*
X152881500Y-84019181D01*
X152881500Y-83620819D01*
X153685615Y-83620819D01*
X153771525Y-83819500D01*
X154939500Y-83819500D01*
X154939500Y-82651525D01*
X154740819Y-82565615D01*
X154275948Y-82737323D01*
X153912173Y-83073859D01*
X153704876Y-83523988D01*
X153685615Y-83620819D01*
X152881500Y-83620819D01*
X152881500Y-81479181D01*
X153685615Y-81479181D01*
X153704876Y-81576012D01*
X153912173Y-82026141D01*
X154275948Y-82362677D01*
X154740819Y-82534385D01*
X154939500Y-82448475D01*
X154939500Y-81280500D01*
X153771525Y-81280500D01*
X153685615Y-81479181D01*
X152881500Y-81479181D01*
X152881500Y-81080819D01*
X153685615Y-81080819D01*
X153771525Y-81279500D01*
X154939500Y-81279500D01*
X154939500Y-80111525D01*
X154740819Y-80025615D01*
X154275948Y-80197323D01*
X153912173Y-80533859D01*
X153704876Y-80983988D01*
X153685615Y-81080819D01*
X152881500Y-81080819D01*
X152881500Y-78939181D01*
X153685615Y-78939181D01*
X153704876Y-79036012D01*
X153912173Y-79486141D01*
X154275948Y-79822677D01*
X154740819Y-79994385D01*
X154939500Y-79908475D01*
X154939500Y-78740500D01*
X153771525Y-78740500D01*
X153685615Y-78939181D01*
X152881500Y-78939181D01*
X152881500Y-78540819D01*
X153685615Y-78540819D01*
X153771525Y-78739500D01*
X154939500Y-78739500D01*
X154939500Y-77571525D01*
X154740819Y-77485615D01*
X154275948Y-77657323D01*
X153912173Y-77993859D01*
X153704876Y-78443988D01*
X153685615Y-78540819D01*
X152881500Y-78540819D01*
X152881500Y-76399181D01*
X153685615Y-76399181D01*
X153704876Y-76496012D01*
X153912173Y-76946141D01*
X154275948Y-77282677D01*
X154740819Y-77454385D01*
X154939500Y-77368475D01*
X154939500Y-76200500D01*
X153771525Y-76200500D01*
X153685615Y-76399181D01*
X152881500Y-76399181D01*
X152881500Y-76000819D01*
X153685615Y-76000819D01*
X153771525Y-76199500D01*
X154939500Y-76199500D01*
X154939500Y-75031525D01*
X154740819Y-74945615D01*
X154275948Y-75117323D01*
X153912173Y-75453859D01*
X153704876Y-75903988D01*
X153685615Y-76000819D01*
X152881500Y-76000819D01*
X152881500Y-73859181D01*
X153685615Y-73859181D01*
X153704876Y-73956012D01*
X153912173Y-74406141D01*
X154275948Y-74742677D01*
X154740819Y-74914385D01*
X154939500Y-74828475D01*
X154939500Y-73660500D01*
X153771525Y-73660500D01*
X153685615Y-73859181D01*
X152881500Y-73859181D01*
X152881500Y-73707423D01*
X152930552Y-73460819D01*
X153685615Y-73460819D01*
X153771525Y-73659500D01*
X154939500Y-73659500D01*
X154939500Y-72491525D01*
X154940500Y-72491525D01*
X154940500Y-73659500D01*
X154960500Y-73659500D01*
X154960500Y-73660500D01*
X154940500Y-73660500D01*
X154940500Y-74828475D01*
X155139181Y-74914385D01*
X155604052Y-74742677D01*
X155967827Y-74406141D01*
X156175124Y-73956012D01*
X156194385Y-73859181D01*
X156108476Y-73660502D01*
X156185117Y-73660502D01*
X156281698Y-74146046D01*
X156557021Y-74558096D01*
X156969071Y-74833419D01*
X157454614Y-74930000D01*
X156969071Y-75026581D01*
X156557021Y-75301904D01*
X156281698Y-75713954D01*
X156185117Y-76199498D01*
X156108476Y-76199498D01*
X156194385Y-76000819D01*
X156175124Y-75903988D01*
X155967827Y-75453859D01*
X155604052Y-75117323D01*
X155139181Y-74945615D01*
X154940500Y-75031525D01*
X154940500Y-76199500D01*
X154960500Y-76199500D01*
X154960500Y-76200500D01*
X154940500Y-76200500D01*
X154940500Y-77368475D01*
X155139181Y-77454385D01*
X155604052Y-77282677D01*
X155967827Y-76946141D01*
X156175124Y-76496012D01*
X156194385Y-76399181D01*
X156108476Y-76200502D01*
X156185117Y-76200502D01*
X156281698Y-76686046D01*
X156557021Y-77098096D01*
X156969071Y-77373419D01*
X157454614Y-77470000D01*
X156969071Y-77566581D01*
X156557021Y-77841904D01*
X156281698Y-78253954D01*
X156185117Y-78739498D01*
X156108476Y-78739498D01*
X156194385Y-78540819D01*
X156175124Y-78443988D01*
X155967827Y-77993859D01*
X155604052Y-77657323D01*
X155139181Y-77485615D01*
X154940500Y-77571525D01*
X154940500Y-78739500D01*
X154960500Y-78739500D01*
X154960500Y-78740500D01*
X154940500Y-78740500D01*
X154940500Y-79908475D01*
X155139181Y-79994385D01*
X155604052Y-79822677D01*
X155967827Y-79486141D01*
X156175124Y-79036012D01*
X156194385Y-78939181D01*
X156108476Y-78740502D01*
X156185117Y-78740502D01*
X156281698Y-79226046D01*
X156557021Y-79638096D01*
X156969071Y-79913419D01*
X157414079Y-80001937D01*
X156616400Y-80001937D01*
X156465760Y-80030282D01*
X156327407Y-80119310D01*
X156234591Y-80255151D01*
X156201937Y-80416400D01*
X156201937Y-81279498D01*
X156108476Y-81279498D01*
X156194385Y-81080819D01*
X156175124Y-80983988D01*
X155967827Y-80533859D01*
X155604052Y-80197323D01*
X155139181Y-80025615D01*
X154940500Y-80111525D01*
X154940500Y-81279500D01*
X154960500Y-81279500D01*
X154960500Y-81280500D01*
X154940500Y-81280500D01*
X154940500Y-82448475D01*
X155139181Y-82534385D01*
X155604052Y-82362677D01*
X155967827Y-82026141D01*
X156175124Y-81576012D01*
X156194385Y-81479181D01*
X156108476Y-81280502D01*
X156201937Y-81280502D01*
X156201937Y-82143600D01*
X156230282Y-82294240D01*
X156319310Y-82432593D01*
X156455151Y-82525409D01*
X156616400Y-82558063D01*
X157414079Y-82558063D01*
X156969071Y-82646581D01*
X156557021Y-82921904D01*
X156281698Y-83333954D01*
X156185117Y-83819498D01*
X156108476Y-83819498D01*
X156194385Y-83620819D01*
X156175124Y-83523988D01*
X155967827Y-83073859D01*
X155604052Y-82737323D01*
X155139181Y-82565615D01*
X154940500Y-82651525D01*
X154940500Y-83819500D01*
X154960500Y-83819500D01*
X154960500Y-83820500D01*
X154940500Y-83820500D01*
X154940500Y-84988475D01*
X155139181Y-85074385D01*
X155604052Y-84902677D01*
X155967827Y-84566141D01*
X156175124Y-84116012D01*
X156194385Y-84019181D01*
X156108476Y-83820502D01*
X156185117Y-83820502D01*
X156281698Y-84306046D01*
X156557021Y-84718096D01*
X156969071Y-84993419D01*
X157454614Y-85090000D01*
X156969071Y-85186581D01*
X156557021Y-85461904D01*
X156281698Y-85873954D01*
X156185117Y-86359498D01*
X156108476Y-86359498D01*
X156194385Y-86160819D01*
X156175124Y-86063988D01*
X155967827Y-85613859D01*
X155604052Y-85277323D01*
X155139181Y-85105615D01*
X154940500Y-85191525D01*
X154940500Y-86359500D01*
X154960500Y-86359500D01*
X154960500Y-86360500D01*
X154940500Y-86360500D01*
X154940500Y-87528475D01*
X155139181Y-87614385D01*
X155604052Y-87442677D01*
X155967827Y-87106141D01*
X156175124Y-86656012D01*
X156194385Y-86559181D01*
X156108476Y-86360502D01*
X156185117Y-86360502D01*
X156281698Y-86846046D01*
X156557021Y-87258096D01*
X156969071Y-87533419D01*
X157454614Y-87630000D01*
X156969071Y-87726581D01*
X156557021Y-88001904D01*
X156281698Y-88413954D01*
X156185117Y-88899498D01*
X156108476Y-88899498D01*
X156194385Y-88700819D01*
X156175124Y-88603988D01*
X155967827Y-88153859D01*
X155604052Y-87817323D01*
X155139181Y-87645615D01*
X154940500Y-87731525D01*
X154940500Y-88899500D01*
X154960500Y-88899500D01*
X154960500Y-88900500D01*
X154940500Y-88900500D01*
X154940500Y-90068475D01*
X155139181Y-90154385D01*
X155604052Y-89982677D01*
X155967827Y-89646141D01*
X156175124Y-89196012D01*
X156194385Y-89099181D01*
X156108476Y-88900502D01*
X156185117Y-88900502D01*
X156281698Y-89386046D01*
X156557021Y-89798096D01*
X156969071Y-90073419D01*
X157414079Y-90161937D01*
X156616400Y-90161937D01*
X156465760Y-90190282D01*
X156327407Y-90279310D01*
X156234591Y-90415151D01*
X156201937Y-90576400D01*
X156201937Y-91439498D01*
X156108476Y-91439498D01*
X156194385Y-91240819D01*
X156175124Y-91143988D01*
X155967827Y-90693859D01*
X155604052Y-90357323D01*
X155139181Y-90185615D01*
X154940500Y-90271525D01*
X154940500Y-91439500D01*
X154960500Y-91439500D01*
X154960500Y-91440500D01*
X154940500Y-91440500D01*
X154940500Y-92608475D01*
X155139181Y-92694385D01*
X155604052Y-92522677D01*
X155967827Y-92186141D01*
X156175124Y-91736012D01*
X156194385Y-91639181D01*
X156108476Y-91440502D01*
X156201937Y-91440502D01*
X156201937Y-92303600D01*
X156230282Y-92454240D01*
X156319310Y-92592593D01*
X156455151Y-92685409D01*
X156616400Y-92718063D01*
X157414079Y-92718063D01*
X156969071Y-92806581D01*
X156557021Y-93081904D01*
X156281698Y-93493954D01*
X156185117Y-93979498D01*
X156108476Y-93979498D01*
X156194385Y-93780819D01*
X156175124Y-93683988D01*
X155967827Y-93233859D01*
X155604052Y-92897323D01*
X155139181Y-92725615D01*
X154940500Y-92811525D01*
X154940500Y-93979500D01*
X154960500Y-93979500D01*
X154960500Y-93980500D01*
X154940500Y-93980500D01*
X154940500Y-95148475D01*
X155139181Y-95234385D01*
X155604052Y-95062677D01*
X155967827Y-94726141D01*
X156175124Y-94276012D01*
X156194385Y-94179181D01*
X156108476Y-93980502D01*
X156185117Y-93980502D01*
X156281698Y-94466046D01*
X156557021Y-94878096D01*
X156969071Y-95153419D01*
X157454614Y-95250000D01*
X156969071Y-95346581D01*
X156557021Y-95621904D01*
X156281698Y-96033954D01*
X156185117Y-96519498D01*
X156108476Y-96519498D01*
X156194385Y-96320819D01*
X156175124Y-96223988D01*
X155967827Y-95773859D01*
X155604052Y-95437323D01*
X155139181Y-95265615D01*
X154940500Y-95351525D01*
X154940500Y-96519500D01*
X154960500Y-96519500D01*
X154960500Y-96520500D01*
X154940500Y-96520500D01*
X154940500Y-97688475D01*
X155139181Y-97774385D01*
X155604052Y-97602677D01*
X155967827Y-97266141D01*
X156175124Y-96816012D01*
X156194385Y-96719181D01*
X156108476Y-96520502D01*
X156185117Y-96520502D01*
X156281698Y-97006046D01*
X156557021Y-97418096D01*
X156969071Y-97693419D01*
X157454614Y-97790000D01*
X156969071Y-97886581D01*
X156557021Y-98161904D01*
X156281698Y-98573954D01*
X156185117Y-99059498D01*
X156108476Y-99059498D01*
X156194385Y-98860819D01*
X156175124Y-98763988D01*
X155967827Y-98313859D01*
X155604052Y-97977323D01*
X155139181Y-97805615D01*
X154940500Y-97891525D01*
X154940500Y-99059500D01*
X154960500Y-99059500D01*
X154960500Y-99060500D01*
X154940500Y-99060500D01*
X154940500Y-100228475D01*
X155139181Y-100314385D01*
X155604052Y-100142677D01*
X155967827Y-99806141D01*
X156175124Y-99356012D01*
X156194385Y-99259181D01*
X156108476Y-99060502D01*
X156185117Y-99060502D01*
X156281698Y-99546046D01*
X156557021Y-99958096D01*
X156969071Y-100233419D01*
X157414079Y-100321937D01*
X156616400Y-100321937D01*
X156465760Y-100350282D01*
X156327407Y-100439310D01*
X156234591Y-100575151D01*
X156201937Y-100736400D01*
X156201937Y-101599498D01*
X156108476Y-101599498D01*
X156194385Y-101400819D01*
X156175124Y-101303988D01*
X155967827Y-100853859D01*
X155604052Y-100517323D01*
X155139181Y-100345615D01*
X154940500Y-100431525D01*
X154940500Y-101599500D01*
X154960500Y-101599500D01*
X154960500Y-101600500D01*
X154940500Y-101600500D01*
X154940500Y-102768475D01*
X155139181Y-102854385D01*
X155604052Y-102682677D01*
X155967827Y-102346141D01*
X156175124Y-101896012D01*
X156194385Y-101799181D01*
X156108476Y-101600502D01*
X156201937Y-101600502D01*
X156201937Y-102463600D01*
X156230282Y-102614240D01*
X156319310Y-102752593D01*
X156455151Y-102845409D01*
X156616400Y-102878063D01*
X158343600Y-102878063D01*
X158494240Y-102849718D01*
X158632593Y-102760690D01*
X158725409Y-102624849D01*
X158758063Y-102463600D01*
X158758063Y-101073592D01*
X159104288Y-100727367D01*
X160553152Y-100727367D01*
X160857980Y-101465106D01*
X161421925Y-102030036D01*
X162159131Y-102336151D01*
X162957367Y-102336848D01*
X163695106Y-102032020D01*
X164260036Y-101468075D01*
X164566151Y-100730869D01*
X164566154Y-100727367D01*
X179603152Y-100727367D01*
X179907980Y-101465106D01*
X180471925Y-102030036D01*
X181209131Y-102336151D01*
X182007367Y-102336848D01*
X182745106Y-102032020D01*
X183310036Y-101468075D01*
X183616151Y-100730869D01*
X183616848Y-99932633D01*
X183312020Y-99194894D01*
X182748075Y-98629964D01*
X182010869Y-98323849D01*
X181212633Y-98323152D01*
X180474894Y-98627980D01*
X179909964Y-99191925D01*
X179603849Y-99929131D01*
X179603152Y-100727367D01*
X164566154Y-100727367D01*
X164566848Y-99932633D01*
X164262020Y-99194894D01*
X163698075Y-98629964D01*
X162960869Y-98323849D01*
X162162633Y-98323152D01*
X161424894Y-98627980D01*
X160859964Y-99191925D01*
X160553849Y-99929131D01*
X160553152Y-100727367D01*
X159104288Y-100727367D01*
X159379827Y-100451828D01*
X159495041Y-100279397D01*
X159495042Y-100279396D01*
X159535500Y-100076000D01*
X159535500Y-99026154D01*
X160014828Y-98546827D01*
X160014830Y-98546824D01*
X162859115Y-95702539D01*
X162953915Y-95702622D01*
X163213677Y-95595291D01*
X163412592Y-95396723D01*
X163520377Y-95137148D01*
X163520622Y-94856085D01*
X163413291Y-94596323D01*
X163214723Y-94397408D01*
X162955148Y-94289623D01*
X162674085Y-94289378D01*
X162414323Y-94396709D01*
X162215408Y-94595277D01*
X162107623Y-94854852D01*
X162107539Y-94950807D01*
X161601482Y-95456864D01*
X161508291Y-95231323D01*
X161309723Y-95032408D01*
X161050148Y-94924623D01*
X160769085Y-94924378D01*
X160509323Y-95031709D01*
X160310408Y-95230277D01*
X160202623Y-95489852D01*
X160202539Y-95585807D01*
X159953184Y-95835162D01*
X159785723Y-95667408D01*
X159526148Y-95559623D01*
X159245085Y-95559378D01*
X158985323Y-95666709D01*
X158786408Y-95865277D01*
X158735241Y-95988500D01*
X158647931Y-95988500D01*
X158402979Y-95621904D01*
X157990929Y-95346581D01*
X157505386Y-95250000D01*
X157990929Y-95153419D01*
X158402979Y-94878096D01*
X158678302Y-94466046D01*
X158774983Y-93980000D01*
X158678302Y-93493954D01*
X158402979Y-93081904D01*
X157990929Y-92806581D01*
X157545921Y-92718063D01*
X158343600Y-92718063D01*
X158494240Y-92689718D01*
X158632593Y-92600690D01*
X158725409Y-92464849D01*
X158758063Y-92303600D01*
X158758063Y-90576400D01*
X158729718Y-90425760D01*
X158640690Y-90287407D01*
X158504849Y-90194591D01*
X158343600Y-90161937D01*
X157545921Y-90161937D01*
X157990929Y-90073419D01*
X158402979Y-89798096D01*
X158678302Y-89386046D01*
X158772414Y-88912915D01*
X161091378Y-88912915D01*
X161198709Y-89172677D01*
X161397277Y-89371592D01*
X161656852Y-89479377D01*
X161937915Y-89479622D01*
X162197677Y-89372291D01*
X162265586Y-89304500D01*
X163816846Y-89304500D01*
X163149885Y-89971461D01*
X163055085Y-89971378D01*
X162795323Y-90078709D01*
X162596408Y-90277277D01*
X162488623Y-90536852D01*
X162488378Y-90817915D01*
X162595709Y-91077677D01*
X162794277Y-91276592D01*
X163053852Y-91384377D01*
X163334915Y-91384622D01*
X163594677Y-91277291D01*
X163793592Y-91078723D01*
X163901377Y-90819148D01*
X163901461Y-90723193D01*
X164431154Y-90193500D01*
X165975846Y-90193500D01*
X165435885Y-90733461D01*
X165341085Y-90733378D01*
X165081323Y-90840709D01*
X164882408Y-91039277D01*
X164774623Y-91298852D01*
X164774378Y-91579915D01*
X164881709Y-91839677D01*
X165080277Y-92038592D01*
X165339852Y-92146377D01*
X165620915Y-92146622D01*
X165880677Y-92039291D01*
X166079592Y-91840723D01*
X166187377Y-91581148D01*
X166187461Y-91485193D01*
X166590154Y-91082500D01*
X169966302Y-91082500D01*
X170033277Y-91149592D01*
X170292852Y-91257377D01*
X170573915Y-91257622D01*
X170833677Y-91150291D01*
X170901586Y-91082500D01*
X171744302Y-91082500D01*
X171811277Y-91149592D01*
X172070852Y-91257377D01*
X172351915Y-91257622D01*
X172611677Y-91150291D01*
X172810592Y-90951723D01*
X172918377Y-90692148D01*
X172918622Y-90411085D01*
X172811291Y-90151323D01*
X172612723Y-89952408D01*
X172603917Y-89948751D01*
X172664377Y-89803148D01*
X172664622Y-89522085D01*
X172568255Y-89288859D01*
X172683592Y-89173723D01*
X172791377Y-88914148D01*
X172791438Y-88844562D01*
X172859915Y-88844622D01*
X173119677Y-88737291D01*
X173318592Y-88538723D01*
X173426377Y-88279148D01*
X173426622Y-87998085D01*
X173319291Y-87738323D01*
X173120723Y-87539408D01*
X172861148Y-87431623D01*
X172580085Y-87431378D01*
X172320323Y-87538709D01*
X172252414Y-87606500D01*
X169377698Y-87606500D01*
X169310723Y-87539408D01*
X169051148Y-87431623D01*
X168770085Y-87431378D01*
X168510323Y-87538709D01*
X168442414Y-87606500D01*
X162627248Y-87606500D01*
X162524291Y-87357323D01*
X162325723Y-87158408D01*
X162066148Y-87050623D01*
X161785085Y-87050378D01*
X161525323Y-87157709D01*
X161326408Y-87356277D01*
X161218623Y-87615852D01*
X161218378Y-87896915D01*
X161325709Y-88156677D01*
X161370469Y-88201515D01*
X161199408Y-88372277D01*
X161091623Y-88631852D01*
X161091378Y-88912915D01*
X158772414Y-88912915D01*
X158774983Y-88900000D01*
X158678302Y-88413954D01*
X158402979Y-88001904D01*
X157990929Y-87726581D01*
X157505386Y-87630000D01*
X157990929Y-87533419D01*
X158402979Y-87258096D01*
X158678302Y-86846046D01*
X158774983Y-86360000D01*
X158678302Y-85873954D01*
X158402979Y-85461904D01*
X157990929Y-85186581D01*
X157505386Y-85090000D01*
X157990929Y-84993419D01*
X158402979Y-84718096D01*
X158678302Y-84306046D01*
X158774983Y-83820000D01*
X158678302Y-83333954D01*
X158402979Y-82921904D01*
X157990929Y-82646581D01*
X157545921Y-82558063D01*
X158343600Y-82558063D01*
X158494240Y-82529718D01*
X158632593Y-82440690D01*
X158725409Y-82304849D01*
X158758063Y-82143600D01*
X158758063Y-81038915D01*
X162996378Y-81038915D01*
X163103709Y-81298677D01*
X163302277Y-81497592D01*
X163423494Y-81547926D01*
X164673773Y-82798204D01*
X164573323Y-82839709D01*
X164374408Y-83038277D01*
X164266623Y-83297852D01*
X164266378Y-83578915D01*
X164373709Y-83838677D01*
X164572277Y-84037592D01*
X164693494Y-84087926D01*
X165143782Y-84538213D01*
X165143784Y-84538216D01*
X165356768Y-84680527D01*
X165398451Y-84688818D01*
X165608000Y-84730501D01*
X165608005Y-84730500D01*
X173623068Y-84730500D01*
X175365500Y-86472931D01*
X175365500Y-91305735D01*
X175315623Y-91425852D01*
X175315378Y-91706915D01*
X175368267Y-91834918D01*
X175415473Y-92072232D01*
X175557784Y-92285216D01*
X175811782Y-92539213D01*
X175811784Y-92539216D01*
X176516043Y-93243475D01*
X176565709Y-93363677D01*
X176764277Y-93562592D01*
X177023852Y-93670377D01*
X177304915Y-93670622D01*
X177564677Y-93563291D01*
X177763592Y-93364723D01*
X177871377Y-93105148D01*
X177871622Y-92824085D01*
X177764291Y-92564323D01*
X177565723Y-92365408D01*
X177478148Y-92329044D01*
X177564677Y-92293291D01*
X177763592Y-92094723D01*
X177871377Y-91835148D01*
X177871622Y-91554085D01*
X177821500Y-91432780D01*
X177821500Y-89960692D01*
X179165960Y-89960692D01*
X179165960Y-90301108D01*
X179233060Y-90638443D01*
X179424145Y-90924423D01*
X179710125Y-91115508D01*
X180047460Y-91182608D01*
X180307414Y-91130900D01*
X181542813Y-91130900D01*
X181611816Y-91477803D01*
X181808321Y-91771892D01*
X182102410Y-91968397D01*
X182449313Y-92037400D01*
X183045607Y-92037400D01*
X183392510Y-91968397D01*
X183686599Y-91771892D01*
X183883104Y-91477803D01*
X183952107Y-91130900D01*
X183883104Y-90783997D01*
X183686599Y-90489908D01*
X183392510Y-90293403D01*
X183045607Y-90224400D01*
X182449313Y-90224400D01*
X182102410Y-90293403D01*
X181808321Y-90489908D01*
X181611816Y-90783997D01*
X181542813Y-91130900D01*
X180307414Y-91130900D01*
X180384795Y-91115508D01*
X180670775Y-90924423D01*
X180861860Y-90638443D01*
X180928960Y-90301108D01*
X180928960Y-89960692D01*
X180861860Y-89623357D01*
X180670775Y-89337377D01*
X180384795Y-89146292D01*
X180047460Y-89079192D01*
X179710125Y-89146292D01*
X179424145Y-89337377D01*
X179233060Y-89623357D01*
X179165960Y-89960692D01*
X177821500Y-89960692D01*
X177821500Y-85725000D01*
X177771527Y-85473768D01*
X177629216Y-85260784D01*
X177629213Y-85260782D01*
X177329124Y-84960692D01*
X179165960Y-84960692D01*
X179165960Y-85301108D01*
X179233060Y-85638443D01*
X179424145Y-85924423D01*
X179710125Y-86115508D01*
X180047460Y-86182608D01*
X180384795Y-86115508D01*
X180670775Y-85924423D01*
X180861860Y-85638443D01*
X180928960Y-85301108D01*
X180928960Y-84960692D01*
X180861860Y-84623357D01*
X180670775Y-84337377D01*
X180384795Y-84146292D01*
X180307415Y-84130900D01*
X181542813Y-84130900D01*
X181611816Y-84477803D01*
X181808321Y-84771892D01*
X182102410Y-84968397D01*
X182449313Y-85037400D01*
X183045607Y-85037400D01*
X183392510Y-84968397D01*
X183686599Y-84771892D01*
X183883104Y-84477803D01*
X183952107Y-84130900D01*
X183883104Y-83783997D01*
X183686599Y-83489908D01*
X183392510Y-83293403D01*
X183045607Y-83224400D01*
X182449313Y-83224400D01*
X182102410Y-83293403D01*
X181808321Y-83489908D01*
X181611816Y-83783997D01*
X181542813Y-84130900D01*
X180307415Y-84130900D01*
X180047460Y-84079192D01*
X179710125Y-84146292D01*
X179424145Y-84337377D01*
X179233060Y-84623357D01*
X179165960Y-84960692D01*
X177329124Y-84960692D01*
X175089216Y-82720784D01*
X174876232Y-82578473D01*
X174625000Y-82528499D01*
X174624995Y-82528500D01*
X166260931Y-82528500D01*
X164351957Y-80619526D01*
X164302291Y-80499323D01*
X164103723Y-80300408D01*
X163844148Y-80192623D01*
X163563085Y-80192378D01*
X163303323Y-80299709D01*
X163104408Y-80498277D01*
X162996623Y-80757852D01*
X162996378Y-81038915D01*
X158758063Y-81038915D01*
X158758063Y-80416400D01*
X158729718Y-80265760D01*
X158640690Y-80127407D01*
X158504849Y-80034591D01*
X158343600Y-80001937D01*
X157545921Y-80001937D01*
X157990929Y-79913419D01*
X158402979Y-79638096D01*
X158678302Y-79226046D01*
X158774983Y-78740000D01*
X158678302Y-78253954D01*
X158402979Y-77841904D01*
X157990929Y-77566581D01*
X157505386Y-77470000D01*
X157990929Y-77373419D01*
X158402979Y-77098096D01*
X158678302Y-76686046D01*
X158774983Y-76200000D01*
X158678302Y-75713954D01*
X158419993Y-75327367D01*
X160553152Y-75327367D01*
X160857980Y-76065106D01*
X161421925Y-76630036D01*
X162159131Y-76936151D01*
X162957367Y-76936848D01*
X163695106Y-76632020D01*
X164260036Y-76068075D01*
X164566151Y-75330869D01*
X164566848Y-74532633D01*
X164262020Y-73794894D01*
X163698075Y-73229964D01*
X162960869Y-72923849D01*
X162162633Y-72923152D01*
X161424894Y-73227980D01*
X160859964Y-73791925D01*
X160553849Y-74529131D01*
X160553152Y-75327367D01*
X158419993Y-75327367D01*
X158402979Y-75301904D01*
X157990929Y-75026581D01*
X157505386Y-74930000D01*
X157990929Y-74833419D01*
X158402979Y-74558096D01*
X158678302Y-74146046D01*
X158774983Y-73660000D01*
X158678302Y-73173954D01*
X158402979Y-72761904D01*
X157990929Y-72486581D01*
X157504883Y-72389900D01*
X157455117Y-72389900D01*
X156969071Y-72486581D01*
X156557021Y-72761904D01*
X156281698Y-73173954D01*
X156185117Y-73659498D01*
X156108476Y-73659498D01*
X156194385Y-73460819D01*
X156175124Y-73363988D01*
X155967827Y-72913859D01*
X155604052Y-72577323D01*
X155139181Y-72405615D01*
X154940500Y-72491525D01*
X154939500Y-72491525D01*
X154740819Y-72405615D01*
X154275948Y-72577323D01*
X153912173Y-72913859D01*
X153704876Y-73363988D01*
X153685615Y-73460819D01*
X152930552Y-73460819D01*
X153046909Y-72875857D01*
X153491091Y-72211091D01*
X154155855Y-71766909D01*
X154987423Y-71601500D01*
X167374395Y-71601500D01*
X167260760Y-71622882D01*
X167260760Y-71622882D01*
G37*
X167260760Y-71622882D02*
X167122407Y-71711910D01*
X167029591Y-71847751D01*
X166996937Y-72009000D01*
X166996937Y-74041000D01*
X167025282Y-74191640D01*
X167114310Y-74329993D01*
X167250151Y-74422809D01*
X167411400Y-74455463D01*
X167743500Y-74455463D01*
X167743500Y-74549000D01*
X167783958Y-74752396D01*
X167899173Y-74924827D01*
X168661173Y-75686827D01*
X168833604Y-75802042D01*
X169037000Y-75842500D01*
X172633302Y-75842500D01*
X172700277Y-75909592D01*
X172959852Y-76017377D01*
X173240915Y-76017622D01*
X173500677Y-75910291D01*
X173699592Y-75711723D01*
X173807377Y-75452148D01*
X173807485Y-75327367D01*
X179603152Y-75327367D01*
X179907980Y-76065106D01*
X180471925Y-76630036D01*
X181209131Y-76936151D01*
X182007367Y-76936848D01*
X182745106Y-76632020D01*
X183310036Y-76068075D01*
X183616151Y-75330869D01*
X183616848Y-74532633D01*
X183312020Y-73794894D01*
X182748075Y-73229964D01*
X182010869Y-72923849D01*
X181212633Y-72923152D01*
X180474894Y-73227980D01*
X179909964Y-73791925D01*
X179603849Y-74529131D01*
X179603152Y-75327367D01*
X173807485Y-75327367D01*
X173807622Y-75171085D01*
X173700291Y-74911323D01*
X173501723Y-74712408D01*
X173242148Y-74604623D01*
X172961085Y-74604378D01*
X172701323Y-74711709D01*
X172633414Y-74779500D01*
X169257154Y-74779500D01*
X168933117Y-74455463D01*
X169138600Y-74455463D01*
X169289240Y-74427118D01*
X169427593Y-74338090D01*
X169520409Y-74202249D01*
X169553063Y-74041000D01*
X169553063Y-73246306D01*
X169641581Y-73691314D01*
X169916904Y-74103364D01*
X170328954Y-74378687D01*
X170815000Y-74475368D01*
X171301046Y-74378687D01*
X171713096Y-74103364D01*
X171988419Y-73691314D01*
X172085100Y-73205268D01*
X172085100Y-73178903D01*
X172181772Y-73663908D01*
X172457257Y-74075850D01*
X172869416Y-74351011D01*
X173155819Y-74431785D01*
X173354500Y-74345875D01*
X173354500Y-73025500D01*
X173334500Y-73025500D01*
X173334500Y-73024500D01*
X173354500Y-73024500D01*
X173354500Y-71704125D01*
X173155819Y-71618215D01*
X172869416Y-71698989D01*
X172457257Y-71974150D01*
X172181772Y-72386092D01*
X172085100Y-72871097D01*
X172085100Y-72844732D01*
X171988419Y-72358686D01*
X171713096Y-71946636D01*
X171301046Y-71671313D01*
X170950074Y-71601500D01*
X175759926Y-71601500D01*
X175408954Y-71671313D01*
X174996904Y-71946636D01*
X174721581Y-72358686D01*
X174624900Y-72844732D01*
X174624900Y-72871097D01*
X174528228Y-72386092D01*
X174252743Y-71974150D01*
X173840584Y-71698989D01*
X173554181Y-71618215D01*
X173355500Y-71704125D01*
X173355500Y-73024500D01*
X173375500Y-73024500D01*
X173375500Y-73025500D01*
X173355500Y-73025500D01*
X173355500Y-74345875D01*
X173554181Y-74431785D01*
X173840584Y-74351011D01*
X174252743Y-74075850D01*
X174528228Y-73663908D01*
X174624900Y-73178903D01*
X174624900Y-73205268D01*
X174721581Y-73691314D01*
X174996904Y-74103364D01*
X175408954Y-74378687D01*
X175895000Y-74475368D01*
X176381046Y-74378687D01*
X176793096Y-74103364D01*
X177068419Y-73691314D01*
X177165100Y-73205268D01*
X177165100Y-72844732D01*
X177068419Y-72358686D01*
X176793096Y-71946636D01*
X176381046Y-71671313D01*
X176030074Y-71601500D01*
X181562577Y-71601500D01*
X182880151Y-71863582D01*
X183956935Y-72583065D01*
X184676418Y-73659849D01*
X184938500Y-74977423D01*
X184938500Y-100282577D01*
X184676418Y-101600151D01*
X183956935Y-102676935D01*
X182880151Y-103396418D01*
X181562577Y-103658500D01*
X154987423Y-103658500D01*
X154155855Y-103493091D01*
X153491091Y-103048909D01*
X153046909Y-102384143D01*
X152930553Y-101799181D01*
X153685615Y-101799181D01*
X153704876Y-101896012D01*
X153912173Y-102346141D01*
X154275948Y-102682677D01*
X154740819Y-102854385D01*
X154939500Y-102768475D01*
X154939500Y-101600500D01*
X153771525Y-101600500D01*
X153685615Y-101799181D01*
X152930553Y-101799181D01*
X152881500Y-101552577D01*
X152881500Y-101400819D01*
X153685615Y-101400819D01*
X153771525Y-101599500D01*
X154939500Y-101599500D01*
X154939500Y-100431525D01*
X154740819Y-100345615D01*
X154275948Y-100517323D01*
X153912173Y-100853859D01*
X153704876Y-101303988D01*
X153685615Y-101400819D01*
X152881500Y-101400819D01*
X152881500Y-99259181D01*
X153685615Y-99259181D01*
X153704876Y-99356012D01*
X153912173Y-99806141D01*
X154275948Y-100142677D01*
X154740819Y-100314385D01*
X154939500Y-100228475D01*
X154939500Y-99060500D01*
X153771525Y-99060500D01*
X153685615Y-99259181D01*
X152881500Y-99259181D01*
X152881500Y-98860819D01*
X153685615Y-98860819D01*
X153771525Y-99059500D01*
X154939500Y-99059500D01*
X154939500Y-97891525D01*
X154740819Y-97805615D01*
X154275948Y-97977323D01*
X153912173Y-98313859D01*
X153704876Y-98763988D01*
X153685615Y-98860819D01*
X152881500Y-98860819D01*
X152881500Y-96719181D01*
X153685615Y-96719181D01*
X153704876Y-96816012D01*
X153912173Y-97266141D01*
X154275948Y-97602677D01*
X154740819Y-97774385D01*
X154939500Y-97688475D01*
X154939500Y-96520500D01*
X153771525Y-96520500D01*
X153685615Y-96719181D01*
X152881500Y-96719181D01*
X152881500Y-96320819D01*
X153685615Y-96320819D01*
X153771525Y-96519500D01*
X154939500Y-96519500D01*
X154939500Y-95351525D01*
X154740819Y-95265615D01*
X154275948Y-95437323D01*
X153912173Y-95773859D01*
X153704876Y-96223988D01*
X153685615Y-96320819D01*
X152881500Y-96320819D01*
X152881500Y-94179181D01*
X153685615Y-94179181D01*
X153704876Y-94276012D01*
X153912173Y-94726141D01*
X154275948Y-95062677D01*
X154740819Y-95234385D01*
X154939500Y-95148475D01*
X154939500Y-93980500D01*
X153771525Y-93980500D01*
X153685615Y-94179181D01*
X152881500Y-94179181D01*
X152881500Y-93780819D01*
X153685615Y-93780819D01*
X153771525Y-93979500D01*
X154939500Y-93979500D01*
X154939500Y-92811525D01*
X154740819Y-92725615D01*
X154275948Y-92897323D01*
X153912173Y-93233859D01*
X153704876Y-93683988D01*
X153685615Y-93780819D01*
X152881500Y-93780819D01*
X152881500Y-91639181D01*
X153685615Y-91639181D01*
X153704876Y-91736012D01*
X153912173Y-92186141D01*
X154275948Y-92522677D01*
X154740819Y-92694385D01*
X154939500Y-92608475D01*
X154939500Y-91440500D01*
X153771525Y-91440500D01*
X153685615Y-91639181D01*
X152881500Y-91639181D01*
X152881500Y-91240819D01*
X153685615Y-91240819D01*
X153771525Y-91439500D01*
X154939500Y-91439500D01*
X154939500Y-90271525D01*
X154740819Y-90185615D01*
X154275948Y-90357323D01*
X153912173Y-90693859D01*
X153704876Y-91143988D01*
X153685615Y-91240819D01*
X152881500Y-91240819D01*
X152881500Y-89099181D01*
X153685615Y-89099181D01*
X153704876Y-89196012D01*
X153912173Y-89646141D01*
X154275948Y-89982677D01*
X154740819Y-90154385D01*
X154939500Y-90068475D01*
X154939500Y-88900500D01*
X153771525Y-88900500D01*
X153685615Y-89099181D01*
X152881500Y-89099181D01*
X152881500Y-88700819D01*
X153685615Y-88700819D01*
X153771525Y-88899500D01*
X154939500Y-88899500D01*
X154939500Y-87731525D01*
X154740819Y-87645615D01*
X154275948Y-87817323D01*
X153912173Y-88153859D01*
X153704876Y-88603988D01*
X153685615Y-88700819D01*
X152881500Y-88700819D01*
X152881500Y-86559181D01*
X153685615Y-86559181D01*
X153704876Y-86656012D01*
X153912173Y-87106141D01*
X154275948Y-87442677D01*
X154740819Y-87614385D01*
X154939500Y-87528475D01*
X154939500Y-86360500D01*
X153771525Y-86360500D01*
X153685615Y-86559181D01*
X152881500Y-86559181D01*
X152881500Y-86160819D01*
X153685615Y-86160819D01*
X153771525Y-86359500D01*
X154939500Y-86359500D01*
X154939500Y-85191525D01*
X154740819Y-85105615D01*
X154275948Y-85277323D01*
X153912173Y-85613859D01*
X153704876Y-86063988D01*
X153685615Y-86160819D01*
X152881500Y-86160819D01*
X152881500Y-84019181D01*
X153685615Y-84019181D01*
X153704876Y-84116012D01*
X153912173Y-84566141D01*
X154275948Y-84902677D01*
X154740819Y-85074385D01*
X154939500Y-84988475D01*
X154939500Y-83820500D01*
X153771525Y-83820500D01*
X153685615Y-84019181D01*
X152881500Y-84019181D01*
X152881500Y-83620819D01*
X153685615Y-83620819D01*
X153771525Y-83819500D01*
X154939500Y-83819500D01*
X154939500Y-82651525D01*
X154740819Y-82565615D01*
X154275948Y-82737323D01*
X153912173Y-83073859D01*
X153704876Y-83523988D01*
X153685615Y-83620819D01*
X152881500Y-83620819D01*
X152881500Y-81479181D01*
X153685615Y-81479181D01*
X153704876Y-81576012D01*
X153912173Y-82026141D01*
X154275948Y-82362677D01*
X154740819Y-82534385D01*
X154939500Y-82448475D01*
X154939500Y-81280500D01*
X153771525Y-81280500D01*
X153685615Y-81479181D01*
X152881500Y-81479181D01*
X152881500Y-81080819D01*
X153685615Y-81080819D01*
X153771525Y-81279500D01*
X154939500Y-81279500D01*
X154939500Y-80111525D01*
X154740819Y-80025615D01*
X154275948Y-80197323D01*
X153912173Y-80533859D01*
X153704876Y-80983988D01*
X153685615Y-81080819D01*
X152881500Y-81080819D01*
X152881500Y-78939181D01*
X153685615Y-78939181D01*
X153704876Y-79036012D01*
X153912173Y-79486141D01*
X154275948Y-79822677D01*
X154740819Y-79994385D01*
X154939500Y-79908475D01*
X154939500Y-78740500D01*
X153771525Y-78740500D01*
X153685615Y-78939181D01*
X152881500Y-78939181D01*
X152881500Y-78540819D01*
X153685615Y-78540819D01*
X153771525Y-78739500D01*
X154939500Y-78739500D01*
X154939500Y-77571525D01*
X154740819Y-77485615D01*
X154275948Y-77657323D01*
X153912173Y-77993859D01*
X153704876Y-78443988D01*
X153685615Y-78540819D01*
X152881500Y-78540819D01*
X152881500Y-76399181D01*
X153685615Y-76399181D01*
X153704876Y-76496012D01*
X153912173Y-76946141D01*
X154275948Y-77282677D01*
X154740819Y-77454385D01*
X154939500Y-77368475D01*
X154939500Y-76200500D01*
X153771525Y-76200500D01*
X153685615Y-76399181D01*
X152881500Y-76399181D01*
X152881500Y-76000819D01*
X153685615Y-76000819D01*
X153771525Y-76199500D01*
X154939500Y-76199500D01*
X154939500Y-75031525D01*
X154740819Y-74945615D01*
X154275948Y-75117323D01*
X153912173Y-75453859D01*
X153704876Y-75903988D01*
X153685615Y-76000819D01*
X152881500Y-76000819D01*
X152881500Y-73859181D01*
X153685615Y-73859181D01*
X153704876Y-73956012D01*
X153912173Y-74406141D01*
X154275948Y-74742677D01*
X154740819Y-74914385D01*
X154939500Y-74828475D01*
X154939500Y-73660500D01*
X153771525Y-73660500D01*
X153685615Y-73859181D01*
X152881500Y-73859181D01*
X152881500Y-73707423D01*
X152930552Y-73460819D01*
X153685615Y-73460819D01*
X153771525Y-73659500D01*
X154939500Y-73659500D01*
X154939500Y-72491525D01*
X154940500Y-72491525D01*
X154940500Y-73659500D01*
X154960500Y-73659500D01*
X154960500Y-73660500D01*
X154940500Y-73660500D01*
X154940500Y-74828475D01*
X155139181Y-74914385D01*
X155604052Y-74742677D01*
X155967827Y-74406141D01*
X156175124Y-73956012D01*
X156194385Y-73859181D01*
X156108476Y-73660502D01*
X156185117Y-73660502D01*
X156281698Y-74146046D01*
X156557021Y-74558096D01*
X156969071Y-74833419D01*
X157454614Y-74930000D01*
X156969071Y-75026581D01*
X156557021Y-75301904D01*
X156281698Y-75713954D01*
X156185117Y-76199498D01*
X156108476Y-76199498D01*
X156194385Y-76000819D01*
X156175124Y-75903988D01*
X155967827Y-75453859D01*
X155604052Y-75117323D01*
X155139181Y-74945615D01*
X154940500Y-75031525D01*
X154940500Y-76199500D01*
X154960500Y-76199500D01*
X154960500Y-76200500D01*
X154940500Y-76200500D01*
X154940500Y-77368475D01*
X155139181Y-77454385D01*
X155604052Y-77282677D01*
X155967827Y-76946141D01*
X156175124Y-76496012D01*
X156194385Y-76399181D01*
X156108476Y-76200502D01*
X156185117Y-76200502D01*
X156281698Y-76686046D01*
X156557021Y-77098096D01*
X156969071Y-77373419D01*
X157454614Y-77470000D01*
X156969071Y-77566581D01*
X156557021Y-77841904D01*
X156281698Y-78253954D01*
X156185117Y-78739498D01*
X156108476Y-78739498D01*
X156194385Y-78540819D01*
X156175124Y-78443988D01*
X155967827Y-77993859D01*
X155604052Y-77657323D01*
X155139181Y-77485615D01*
X154940500Y-77571525D01*
X154940500Y-78739500D01*
X154960500Y-78739500D01*
X154960500Y-78740500D01*
X154940500Y-78740500D01*
X154940500Y-79908475D01*
X155139181Y-79994385D01*
X155604052Y-79822677D01*
X155967827Y-79486141D01*
X156175124Y-79036012D01*
X156194385Y-78939181D01*
X156108476Y-78740502D01*
X156185117Y-78740502D01*
X156281698Y-79226046D01*
X156557021Y-79638096D01*
X156969071Y-79913419D01*
X157414079Y-80001937D01*
X156616400Y-80001937D01*
X156465760Y-80030282D01*
X156327407Y-80119310D01*
X156234591Y-80255151D01*
X156201937Y-80416400D01*
X156201937Y-81279498D01*
X156108476Y-81279498D01*
X156194385Y-81080819D01*
X156175124Y-80983988D01*
X155967827Y-80533859D01*
X155604052Y-80197323D01*
X155139181Y-80025615D01*
X154940500Y-80111525D01*
X154940500Y-81279500D01*
X154960500Y-81279500D01*
X154960500Y-81280500D01*
X154940500Y-81280500D01*
X154940500Y-82448475D01*
X155139181Y-82534385D01*
X155604052Y-82362677D01*
X155967827Y-82026141D01*
X156175124Y-81576012D01*
X156194385Y-81479181D01*
X156108476Y-81280502D01*
X156201937Y-81280502D01*
X156201937Y-82143600D01*
X156230282Y-82294240D01*
X156319310Y-82432593D01*
X156455151Y-82525409D01*
X156616400Y-82558063D01*
X157414079Y-82558063D01*
X156969071Y-82646581D01*
X156557021Y-82921904D01*
X156281698Y-83333954D01*
X156185117Y-83819498D01*
X156108476Y-83819498D01*
X156194385Y-83620819D01*
X156175124Y-83523988D01*
X155967827Y-83073859D01*
X155604052Y-82737323D01*
X155139181Y-82565615D01*
X154940500Y-82651525D01*
X154940500Y-83819500D01*
X154960500Y-83819500D01*
X154960500Y-83820500D01*
X154940500Y-83820500D01*
X154940500Y-84988475D01*
X155139181Y-85074385D01*
X155604052Y-84902677D01*
X155967827Y-84566141D01*
X156175124Y-84116012D01*
X156194385Y-84019181D01*
X156108476Y-83820502D01*
X156185117Y-83820502D01*
X156281698Y-84306046D01*
X156557021Y-84718096D01*
X156969071Y-84993419D01*
X157454614Y-85090000D01*
X156969071Y-85186581D01*
X156557021Y-85461904D01*
X156281698Y-85873954D01*
X156185117Y-86359498D01*
X156108476Y-86359498D01*
X156194385Y-86160819D01*
X156175124Y-86063988D01*
X155967827Y-85613859D01*
X155604052Y-85277323D01*
X155139181Y-85105615D01*
X154940500Y-85191525D01*
X154940500Y-86359500D01*
X154960500Y-86359500D01*
X154960500Y-86360500D01*
X154940500Y-86360500D01*
X154940500Y-87528475D01*
X155139181Y-87614385D01*
X155604052Y-87442677D01*
X155967827Y-87106141D01*
X156175124Y-86656012D01*
X156194385Y-86559181D01*
X156108476Y-86360502D01*
X156185117Y-86360502D01*
X156281698Y-86846046D01*
X156557021Y-87258096D01*
X156969071Y-87533419D01*
X157454614Y-87630000D01*
X156969071Y-87726581D01*
X156557021Y-88001904D01*
X156281698Y-88413954D01*
X156185117Y-88899498D01*
X156108476Y-88899498D01*
X156194385Y-88700819D01*
X156175124Y-88603988D01*
X155967827Y-88153859D01*
X155604052Y-87817323D01*
X155139181Y-87645615D01*
X154940500Y-87731525D01*
X154940500Y-88899500D01*
X154960500Y-88899500D01*
X154960500Y-88900500D01*
X154940500Y-88900500D01*
X154940500Y-90068475D01*
X155139181Y-90154385D01*
X155604052Y-89982677D01*
X155967827Y-89646141D01*
X156175124Y-89196012D01*
X156194385Y-89099181D01*
X156108476Y-88900502D01*
X156185117Y-88900502D01*
X156281698Y-89386046D01*
X156557021Y-89798096D01*
X156969071Y-90073419D01*
X157414079Y-90161937D01*
X156616400Y-90161937D01*
X156465760Y-90190282D01*
X156327407Y-90279310D01*
X156234591Y-90415151D01*
X156201937Y-90576400D01*
X156201937Y-91439498D01*
X156108476Y-91439498D01*
X156194385Y-91240819D01*
X156175124Y-91143988D01*
X155967827Y-90693859D01*
X155604052Y-90357323D01*
X155139181Y-90185615D01*
X154940500Y-90271525D01*
X154940500Y-91439500D01*
X154960500Y-91439500D01*
X154960500Y-91440500D01*
X154940500Y-91440500D01*
X154940500Y-92608475D01*
X155139181Y-92694385D01*
X155604052Y-92522677D01*
X155967827Y-92186141D01*
X156175124Y-91736012D01*
X156194385Y-91639181D01*
X156108476Y-91440502D01*
X156201937Y-91440502D01*
X156201937Y-92303600D01*
X156230282Y-92454240D01*
X156319310Y-92592593D01*
X156455151Y-92685409D01*
X156616400Y-92718063D01*
X157414079Y-92718063D01*
X156969071Y-92806581D01*
X156557021Y-93081904D01*
X156281698Y-93493954D01*
X156185117Y-93979498D01*
X156108476Y-93979498D01*
X156194385Y-93780819D01*
X156175124Y-93683988D01*
X155967827Y-93233859D01*
X155604052Y-92897323D01*
X155139181Y-92725615D01*
X154940500Y-92811525D01*
X154940500Y-93979500D01*
X154960500Y-93979500D01*
X154960500Y-93980500D01*
X154940500Y-93980500D01*
X154940500Y-95148475D01*
X155139181Y-95234385D01*
X155604052Y-95062677D01*
X155967827Y-94726141D01*
X156175124Y-94276012D01*
X156194385Y-94179181D01*
X156108476Y-93980502D01*
X156185117Y-93980502D01*
X156281698Y-94466046D01*
X156557021Y-94878096D01*
X156969071Y-95153419D01*
X157454614Y-95250000D01*
X156969071Y-95346581D01*
X156557021Y-95621904D01*
X156281698Y-96033954D01*
X156185117Y-96519498D01*
X156108476Y-96519498D01*
X156194385Y-96320819D01*
X156175124Y-96223988D01*
X155967827Y-95773859D01*
X155604052Y-95437323D01*
X155139181Y-95265615D01*
X154940500Y-95351525D01*
X154940500Y-96519500D01*
X154960500Y-96519500D01*
X154960500Y-96520500D01*
X154940500Y-96520500D01*
X154940500Y-97688475D01*
X155139181Y-97774385D01*
X155604052Y-97602677D01*
X155967827Y-97266141D01*
X156175124Y-96816012D01*
X156194385Y-96719181D01*
X156108476Y-96520502D01*
X156185117Y-96520502D01*
X156281698Y-97006046D01*
X156557021Y-97418096D01*
X156969071Y-97693419D01*
X157454614Y-97790000D01*
X156969071Y-97886581D01*
X156557021Y-98161904D01*
X156281698Y-98573954D01*
X156185117Y-99059498D01*
X156108476Y-99059498D01*
X156194385Y-98860819D01*
X156175124Y-98763988D01*
X155967827Y-98313859D01*
X155604052Y-97977323D01*
X155139181Y-97805615D01*
X154940500Y-97891525D01*
X154940500Y-99059500D01*
X154960500Y-99059500D01*
X154960500Y-99060500D01*
X154940500Y-99060500D01*
X154940500Y-100228475D01*
X155139181Y-100314385D01*
X155604052Y-100142677D01*
X155967827Y-99806141D01*
X156175124Y-99356012D01*
X156194385Y-99259181D01*
X156108476Y-99060502D01*
X156185117Y-99060502D01*
X156281698Y-99546046D01*
X156557021Y-99958096D01*
X156969071Y-100233419D01*
X157414079Y-100321937D01*
X156616400Y-100321937D01*
X156465760Y-100350282D01*
X156327407Y-100439310D01*
X156234591Y-100575151D01*
X156201937Y-100736400D01*
X156201937Y-101599498D01*
X156108476Y-101599498D01*
X156194385Y-101400819D01*
X156175124Y-101303988D01*
X155967827Y-100853859D01*
X155604052Y-100517323D01*
X155139181Y-100345615D01*
X154940500Y-100431525D01*
X154940500Y-101599500D01*
X154960500Y-101599500D01*
X154960500Y-101600500D01*
X154940500Y-101600500D01*
X154940500Y-102768475D01*
X155139181Y-102854385D01*
X155604052Y-102682677D01*
X155967827Y-102346141D01*
X156175124Y-101896012D01*
X156194385Y-101799181D01*
X156108476Y-101600502D01*
X156201937Y-101600502D01*
X156201937Y-102463600D01*
X156230282Y-102614240D01*
X156319310Y-102752593D01*
X156455151Y-102845409D01*
X156616400Y-102878063D01*
X158343600Y-102878063D01*
X158494240Y-102849718D01*
X158632593Y-102760690D01*
X158725409Y-102624849D01*
X158758063Y-102463600D01*
X158758063Y-101073592D01*
X159104288Y-100727367D01*
X160553152Y-100727367D01*
X160857980Y-101465106D01*
X161421925Y-102030036D01*
X162159131Y-102336151D01*
X162957367Y-102336848D01*
X163695106Y-102032020D01*
X164260036Y-101468075D01*
X164566151Y-100730869D01*
X164566154Y-100727367D01*
X179603152Y-100727367D01*
X179907980Y-101465106D01*
X180471925Y-102030036D01*
X181209131Y-102336151D01*
X182007367Y-102336848D01*
X182745106Y-102032020D01*
X183310036Y-101468075D01*
X183616151Y-100730869D01*
X183616848Y-99932633D01*
X183312020Y-99194894D01*
X182748075Y-98629964D01*
X182010869Y-98323849D01*
X181212633Y-98323152D01*
X180474894Y-98627980D01*
X179909964Y-99191925D01*
X179603849Y-99929131D01*
X179603152Y-100727367D01*
X164566154Y-100727367D01*
X164566848Y-99932633D01*
X164262020Y-99194894D01*
X163698075Y-98629964D01*
X162960869Y-98323849D01*
X162162633Y-98323152D01*
X161424894Y-98627980D01*
X160859964Y-99191925D01*
X160553849Y-99929131D01*
X160553152Y-100727367D01*
X159104288Y-100727367D01*
X159379827Y-100451828D01*
X159495041Y-100279397D01*
X159495042Y-100279396D01*
X159535500Y-100076000D01*
X159535500Y-99026154D01*
X160014828Y-98546827D01*
X160014830Y-98546824D01*
X162859115Y-95702539D01*
X162953915Y-95702622D01*
X163213677Y-95595291D01*
X163412592Y-95396723D01*
X163520377Y-95137148D01*
X163520622Y-94856085D01*
X163413291Y-94596323D01*
X163214723Y-94397408D01*
X162955148Y-94289623D01*
X162674085Y-94289378D01*
X162414323Y-94396709D01*
X162215408Y-94595277D01*
X162107623Y-94854852D01*
X162107539Y-94950807D01*
X161601482Y-95456864D01*
X161508291Y-95231323D01*
X161309723Y-95032408D01*
X161050148Y-94924623D01*
X160769085Y-94924378D01*
X160509323Y-95031709D01*
X160310408Y-95230277D01*
X160202623Y-95489852D01*
X160202539Y-95585807D01*
X159953184Y-95835162D01*
X159785723Y-95667408D01*
X159526148Y-95559623D01*
X159245085Y-95559378D01*
X158985323Y-95666709D01*
X158786408Y-95865277D01*
X158735241Y-95988500D01*
X158647931Y-95988500D01*
X158402979Y-95621904D01*
X157990929Y-95346581D01*
X157505386Y-95250000D01*
X157990929Y-95153419D01*
X158402979Y-94878096D01*
X158678302Y-94466046D01*
X158774983Y-93980000D01*
X158678302Y-93493954D01*
X158402979Y-93081904D01*
X157990929Y-92806581D01*
X157545921Y-92718063D01*
X158343600Y-92718063D01*
X158494240Y-92689718D01*
X158632593Y-92600690D01*
X158725409Y-92464849D01*
X158758063Y-92303600D01*
X158758063Y-90576400D01*
X158729718Y-90425760D01*
X158640690Y-90287407D01*
X158504849Y-90194591D01*
X158343600Y-90161937D01*
X157545921Y-90161937D01*
X157990929Y-90073419D01*
X158402979Y-89798096D01*
X158678302Y-89386046D01*
X158772414Y-88912915D01*
X161091378Y-88912915D01*
X161198709Y-89172677D01*
X161397277Y-89371592D01*
X161656852Y-89479377D01*
X161937915Y-89479622D01*
X162197677Y-89372291D01*
X162265586Y-89304500D01*
X163816846Y-89304500D01*
X163149885Y-89971461D01*
X163055085Y-89971378D01*
X162795323Y-90078709D01*
X162596408Y-90277277D01*
X162488623Y-90536852D01*
X162488378Y-90817915D01*
X162595709Y-91077677D01*
X162794277Y-91276592D01*
X163053852Y-91384377D01*
X163334915Y-91384622D01*
X163594677Y-91277291D01*
X163793592Y-91078723D01*
X163901377Y-90819148D01*
X163901461Y-90723193D01*
X164431154Y-90193500D01*
X165975846Y-90193500D01*
X165435885Y-90733461D01*
X165341085Y-90733378D01*
X165081323Y-90840709D01*
X164882408Y-91039277D01*
X164774623Y-91298852D01*
X164774378Y-91579915D01*
X164881709Y-91839677D01*
X165080277Y-92038592D01*
X165339852Y-92146377D01*
X165620915Y-92146622D01*
X165880677Y-92039291D01*
X166079592Y-91840723D01*
X166187377Y-91581148D01*
X166187461Y-91485193D01*
X166590154Y-91082500D01*
X169966302Y-91082500D01*
X170033277Y-91149592D01*
X170292852Y-91257377D01*
X170573915Y-91257622D01*
X170833677Y-91150291D01*
X170901586Y-91082500D01*
X171744302Y-91082500D01*
X171811277Y-91149592D01*
X172070852Y-91257377D01*
X172351915Y-91257622D01*
X172611677Y-91150291D01*
X172810592Y-90951723D01*
X172918377Y-90692148D01*
X172918622Y-90411085D01*
X172811291Y-90151323D01*
X172612723Y-89952408D01*
X172603917Y-89948751D01*
X172664377Y-89803148D01*
X172664622Y-89522085D01*
X172568255Y-89288859D01*
X172683592Y-89173723D01*
X172791377Y-88914148D01*
X172791438Y-88844562D01*
X172859915Y-88844622D01*
X173119677Y-88737291D01*
X173318592Y-88538723D01*
X173426377Y-88279148D01*
X173426622Y-87998085D01*
X173319291Y-87738323D01*
X173120723Y-87539408D01*
X172861148Y-87431623D01*
X172580085Y-87431378D01*
X172320323Y-87538709D01*
X172252414Y-87606500D01*
X169377698Y-87606500D01*
X169310723Y-87539408D01*
X169051148Y-87431623D01*
X168770085Y-87431378D01*
X168510323Y-87538709D01*
X168442414Y-87606500D01*
X162627248Y-87606500D01*
X162524291Y-87357323D01*
X162325723Y-87158408D01*
X162066148Y-87050623D01*
X161785085Y-87050378D01*
X161525323Y-87157709D01*
X161326408Y-87356277D01*
X161218623Y-87615852D01*
X161218378Y-87896915D01*
X161325709Y-88156677D01*
X161370469Y-88201515D01*
X161199408Y-88372277D01*
X161091623Y-88631852D01*
X161091378Y-88912915D01*
X158772414Y-88912915D01*
X158774983Y-88900000D01*
X158678302Y-88413954D01*
X158402979Y-88001904D01*
X157990929Y-87726581D01*
X157505386Y-87630000D01*
X157990929Y-87533419D01*
X158402979Y-87258096D01*
X158678302Y-86846046D01*
X158774983Y-86360000D01*
X158678302Y-85873954D01*
X158402979Y-85461904D01*
X157990929Y-85186581D01*
X157505386Y-85090000D01*
X157990929Y-84993419D01*
X158402979Y-84718096D01*
X158678302Y-84306046D01*
X158774983Y-83820000D01*
X158678302Y-83333954D01*
X158402979Y-82921904D01*
X157990929Y-82646581D01*
X157545921Y-82558063D01*
X158343600Y-82558063D01*
X158494240Y-82529718D01*
X158632593Y-82440690D01*
X158725409Y-82304849D01*
X158758063Y-82143600D01*
X158758063Y-81038915D01*
X162996378Y-81038915D01*
X163103709Y-81298677D01*
X163302277Y-81497592D01*
X163423494Y-81547926D01*
X164673773Y-82798204D01*
X164573323Y-82839709D01*
X164374408Y-83038277D01*
X164266623Y-83297852D01*
X164266378Y-83578915D01*
X164373709Y-83838677D01*
X164572277Y-84037592D01*
X164693494Y-84087926D01*
X165143782Y-84538213D01*
X165143784Y-84538216D01*
X165356768Y-84680527D01*
X165398451Y-84688818D01*
X165608000Y-84730501D01*
X165608005Y-84730500D01*
X173623068Y-84730500D01*
X175365500Y-86472931D01*
X175365500Y-91305735D01*
X175315623Y-91425852D01*
X175315378Y-91706915D01*
X175368267Y-91834918D01*
X175415473Y-92072232D01*
X175557784Y-92285216D01*
X175811782Y-92539213D01*
X175811784Y-92539216D01*
X176516043Y-93243475D01*
X176565709Y-93363677D01*
X176764277Y-93562592D01*
X177023852Y-93670377D01*
X177304915Y-93670622D01*
X177564677Y-93563291D01*
X177763592Y-93364723D01*
X177871377Y-93105148D01*
X177871622Y-92824085D01*
X177764291Y-92564323D01*
X177565723Y-92365408D01*
X177478148Y-92329044D01*
X177564677Y-92293291D01*
X177763592Y-92094723D01*
X177871377Y-91835148D01*
X177871622Y-91554085D01*
X177821500Y-91432780D01*
X177821500Y-89960692D01*
X179165960Y-89960692D01*
X179165960Y-90301108D01*
X179233060Y-90638443D01*
X179424145Y-90924423D01*
X179710125Y-91115508D01*
X180047460Y-91182608D01*
X180307414Y-91130900D01*
X181542813Y-91130900D01*
X181611816Y-91477803D01*
X181808321Y-91771892D01*
X182102410Y-91968397D01*
X182449313Y-92037400D01*
X183045607Y-92037400D01*
X183392510Y-91968397D01*
X183686599Y-91771892D01*
X183883104Y-91477803D01*
X183952107Y-91130900D01*
X183883104Y-90783997D01*
X183686599Y-90489908D01*
X183392510Y-90293403D01*
X183045607Y-90224400D01*
X182449313Y-90224400D01*
X182102410Y-90293403D01*
X181808321Y-90489908D01*
X181611816Y-90783997D01*
X181542813Y-91130900D01*
X180307414Y-91130900D01*
X180384795Y-91115508D01*
X180670775Y-90924423D01*
X180861860Y-90638443D01*
X180928960Y-90301108D01*
X180928960Y-89960692D01*
X180861860Y-89623357D01*
X180670775Y-89337377D01*
X180384795Y-89146292D01*
X180047460Y-89079192D01*
X179710125Y-89146292D01*
X179424145Y-89337377D01*
X179233060Y-89623357D01*
X179165960Y-89960692D01*
X177821500Y-89960692D01*
X177821500Y-85725000D01*
X177771527Y-85473768D01*
X177629216Y-85260784D01*
X177629213Y-85260782D01*
X177329124Y-84960692D01*
X179165960Y-84960692D01*
X179165960Y-85301108D01*
X179233060Y-85638443D01*
X179424145Y-85924423D01*
X179710125Y-86115508D01*
X180047460Y-86182608D01*
X180384795Y-86115508D01*
X180670775Y-85924423D01*
X180861860Y-85638443D01*
X180928960Y-85301108D01*
X180928960Y-84960692D01*
X180861860Y-84623357D01*
X180670775Y-84337377D01*
X180384795Y-84146292D01*
X180307415Y-84130900D01*
X181542813Y-84130900D01*
X181611816Y-84477803D01*
X181808321Y-84771892D01*
X182102410Y-84968397D01*
X182449313Y-85037400D01*
X183045607Y-85037400D01*
X183392510Y-84968397D01*
X183686599Y-84771892D01*
X183883104Y-84477803D01*
X183952107Y-84130900D01*
X183883104Y-83783997D01*
X183686599Y-83489908D01*
X183392510Y-83293403D01*
X183045607Y-83224400D01*
X182449313Y-83224400D01*
X182102410Y-83293403D01*
X181808321Y-83489908D01*
X181611816Y-83783997D01*
X181542813Y-84130900D01*
X180307415Y-84130900D01*
X180047460Y-84079192D01*
X179710125Y-84146292D01*
X179424145Y-84337377D01*
X179233060Y-84623357D01*
X179165960Y-84960692D01*
X177329124Y-84960692D01*
X175089216Y-82720784D01*
X174876232Y-82578473D01*
X174625000Y-82528499D01*
X174624995Y-82528500D01*
X166260931Y-82528500D01*
X164351957Y-80619526D01*
X164302291Y-80499323D01*
X164103723Y-80300408D01*
X163844148Y-80192623D01*
X163563085Y-80192378D01*
X163303323Y-80299709D01*
X163104408Y-80498277D01*
X162996623Y-80757852D01*
X162996378Y-81038915D01*
X158758063Y-81038915D01*
X158758063Y-80416400D01*
X158729718Y-80265760D01*
X158640690Y-80127407D01*
X158504849Y-80034591D01*
X158343600Y-80001937D01*
X157545921Y-80001937D01*
X157990929Y-79913419D01*
X158402979Y-79638096D01*
X158678302Y-79226046D01*
X158774983Y-78740000D01*
X158678302Y-78253954D01*
X158402979Y-77841904D01*
X157990929Y-77566581D01*
X157505386Y-77470000D01*
X157990929Y-77373419D01*
X158402979Y-77098096D01*
X158678302Y-76686046D01*
X158774983Y-76200000D01*
X158678302Y-75713954D01*
X158419993Y-75327367D01*
X160553152Y-75327367D01*
X160857980Y-76065106D01*
X161421925Y-76630036D01*
X162159131Y-76936151D01*
X162957367Y-76936848D01*
X163695106Y-76632020D01*
X164260036Y-76068075D01*
X164566151Y-75330869D01*
X164566848Y-74532633D01*
X164262020Y-73794894D01*
X163698075Y-73229964D01*
X162960869Y-72923849D01*
X162162633Y-72923152D01*
X161424894Y-73227980D01*
X160859964Y-73791925D01*
X160553849Y-74529131D01*
X160553152Y-75327367D01*
X158419993Y-75327367D01*
X158402979Y-75301904D01*
X157990929Y-75026581D01*
X157505386Y-74930000D01*
X157990929Y-74833419D01*
X158402979Y-74558096D01*
X158678302Y-74146046D01*
X158774983Y-73660000D01*
X158678302Y-73173954D01*
X158402979Y-72761904D01*
X157990929Y-72486581D01*
X157504883Y-72389900D01*
X157455117Y-72389900D01*
X156969071Y-72486581D01*
X156557021Y-72761904D01*
X156281698Y-73173954D01*
X156185117Y-73659498D01*
X156108476Y-73659498D01*
X156194385Y-73460819D01*
X156175124Y-73363988D01*
X155967827Y-72913859D01*
X155604052Y-72577323D01*
X155139181Y-72405615D01*
X154940500Y-72491525D01*
X154939500Y-72491525D01*
X154740819Y-72405615D01*
X154275948Y-72577323D01*
X153912173Y-72913859D01*
X153704876Y-73363988D01*
X153685615Y-73460819D01*
X152930552Y-73460819D01*
X153046909Y-72875857D01*
X153491091Y-72211091D01*
X154155855Y-71766909D01*
X154987423Y-71601500D01*
X167374395Y-71601500D01*
X167260760Y-71622882D01*
M02*
